<?xml version="1.0" encoding="utf-8"?><svg viewBox="0 0 209 100" xmlns="http://www.w3.org/2000/svg" xmlns:xlink="http://www.w3.org/1999/xlink"><style>:root>svg{display:none}:root>svg:target{display:block}</style><svg fill="none" viewBox="0 0 100 100" id="christmas-decorations" xmlns="http://www.w3.org/2000/svg"><path d="M36.719 17.852v7.93l-4.336.038-4.356.059-.058 4.394-.059 4.395-1.992.938c-2.54 1.21-5.234 3.105-7.383 5.214-1.914 1.895-4.18 4.864-3.926 5.117.098.098 1.426.899 2.97 1.797l2.792 1.641 1.582-.938c.88-.507 2.93-1.718 4.59-2.695l3.008-1.758 1.582.938c6.23 3.652 7.46 4.355 7.637 4.355.117 0 2.167-1.172 4.59-2.597 2.421-1.426 4.492-2.598 4.59-2.598.116 0 2.226 1.191 4.687 2.656l4.492 2.637.586-.352c.332-.175 1.66-.976 2.988-1.738l2.383-1.406-.82-1.191c-1.23-1.758-4.492-5.098-6.407-6.524-.918-.684-2.734-1.797-4.043-2.46l-2.402-1.212v-8.711H40.82l-.039-7.87-.058-7.852L38.73 10l-2.012-.059v7.91z" fill="#fff"/><path d="M64.805 16.348l-.059 6.406-3.262.058-3.28.04V29.805l-1.017.43c-1.015.43-4.257 2.382-4.257 2.578 0 .058.664.449 1.465.878 5.273 2.754 10.468 8.36 13.164 14.2 3.496 7.558 3.867 16.406.996 24.18-.977 2.656-1.016 2.402.312 2.245a48.129 48.129 0 002.617-.43c8.184-1.62 15.04-7.89 17.461-15.937.743-2.48.957-3.925.957-6.68 0-6.308-2.304-11.913-6.699-16.308-1.758-1.758-4.043-3.398-6.387-4.57l-1.425-.703v-6.836l-3.262-.04-3.281-.058-.059-6.406-.039-6.387h-3.906l-.04 6.387z" fill="#fff"/><path d="M25 50.117c-2.422 1.426-4.55 2.578-4.727 2.54-.175-.04-1.875-.977-3.75-2.071-1.894-1.094-3.515-1.934-3.613-1.875-.312.195-1.523 3.496-2.05 5.586-1.172 4.766-1.172 8.945-.02 13.77.41 1.777 1.426 4.706 1.836 5.331.117.196 1.035-.254 3.75-1.835 1.973-1.153 3.672-2.09 3.789-2.09.098 0 2.226 1.21 4.726 2.656l4.532 2.676 4.55-2.676c2.5-1.465 4.649-2.656 4.746-2.656.118 0 2.247 1.191 4.747 2.656l4.53 2.656 4.552-2.656c2.48-1.465 4.629-2.656 4.726-2.656.117 0 1.817.937 3.77 2.09 1.972 1.171 3.613 2.07 3.633 2.03.039-.019.39-.859.761-1.835 2.754-6.914 2.598-15.274-.39-22.012-.274-.605-.567-1.113-.645-1.113-.078 0-1.66.879-3.496 1.953a119.764 119.764 0 01-3.633 2.09c-.175.058-2.168-.996-4.726-2.5-2.442-1.426-4.532-2.578-4.668-2.578-.117 0-2.207 1.152-4.649 2.578-2.656 1.562-4.55 2.539-4.746 2.48-.156-.058-2.187-1.23-4.492-2.578-2.305-1.348-4.297-2.48-4.414-2.52-.137-.038-2.207 1.114-4.629 2.56zm-8.594 10.918V62.5H13.867v-2.93h2.54v1.465zm9.961 0V62.5H21.29v-2.93H26.367v1.465zm9.961 0V62.5H31.25v-2.93H36.328v1.465zm9.922.04l.059 1.425H41.21v-2.949l2.5.058 2.48.059.059 1.406zm9.805-.04V62.5h-4.883v-2.93h4.883v1.465zm7.617 0V62.5h-2.54v-2.93h2.54v1.465z" fill="#FFE800"/><path d="M17.285 74.512c-1.504.898-2.812 1.68-2.93 1.719-.097.039.235.664.743 1.367 4.511 6.308 10.547 10.273 18.183 11.894 2.578.547 7.696.606 10.41.098 5.82-1.074 11.25-3.926 15.391-8.086 1.856-1.895 4.082-4.785 3.965-5.156-.04-.117-1.348-.957-2.89-1.875-2.071-1.211-2.91-1.602-3.126-1.465-2.07 1.27-8.808 5.117-8.984 5.117-.137 0-2.09-1.094-4.375-2.402-2.266-1.328-4.316-2.52-4.55-2.637-.372-.195-.958.078-4.923 2.402-2.48 1.446-4.61 2.637-4.726 2.637-.137 0-2.188-1.152-4.59-2.539-2.383-1.406-4.473-2.578-4.61-2.617-.136-.059-1.484.644-2.988 1.543z" fill="#fff"/></svg><svg fill="none" viewBox="0 0 100 100" id="delivery-truck" xmlns="http://www.w3.org/2000/svg"><g clip-path="url(#bclip0_17_177)"><path d="M17.266 15.02c-1.934.468-3.887 2.07-4.727 3.886-.43.938-.527 1.446-.586 3.203l-.078 2.11H6.758c-4.453 0-5.176.039-5.781.351-1.114.547-1.29 1.895-.352 2.774.41.39.645.39 11.191.39 7.383 0 10.977.059 11.407.215.625.215 1.191 1.016 1.191 1.719 0 .215-.215.645-.508.977l-.488.585-5.254.06c-5.176.058-5.273.058-5.703.507-.371.351-.469.723-.547 1.953l-.098 1.504-2.207.098c-2.03.097-2.246.136-2.597.566-.41.508-.488 1.406-.156 2.012.468.879 1.054.937 9.043.937h7.5l.507.606c.586.683.625 1.133.215 1.914-.449.898-1.094.996-6.386.996H12.87l-.469.488c-.468.45-.488.566-.488 3.125v2.676l.566.566.567.567h5.41c6.504 0 6.738.058 6.738 1.855 0 .488-.156.781-.605 1.153l-.605.507h-5.352c-6.7 0-6.7 0-6.719 2.48v1.407l-5.488.059-5.488.058-.47.547c-.644.762-.605 1.582.098 2.305l.567.566H11.914v14.61l.606.507c.488.41.8.508 1.66.508 1.953 0 2.617-.742 2.617-2.91 0-3.242 2.383-7.676 5.313-9.883 4.296-3.242 9.765-3.906 14.394-1.738 4.785 2.246 7.637 6.21 8.223 11.445.254 2.325.312 2.442.976 2.793.488.254 2.149.293 11.035.293h10.489l.566-.566.566-.586-.039-27.5-.058-27.5-.547-1.172c-.918-1.953-2.461-3.3-4.434-3.887-.937-.273-3.515-.312-23.222-.293-12.207.02-22.461.078-22.793.157zm17.187 20.937c.586.684.625 1.133.215 1.934-.39.761-1.387 1.035-3.3.937-1.31-.059-1.544-.137-2.012-.586-.723-.722-.704-1.816.039-2.441.468-.41.703-.45 2.539-.45 2.011 0 2.011 0 2.52.606zM22.48 57.793c.762.781.762 1.602 0 2.383l-.566.566H18.79c-2.812 0-3.164-.039-3.613-.39-.606-.489-.82-1.27-.508-1.993.39-.976.938-1.113 4.238-1.132h3.008l.566.566zM72.441 40.02l-.566.566V62.87l.469.547c.683.8 1.68.742 2.969-.195 7.656-5.528 18.456-2.012 21.581 7.03.215.626.489 2.013.606 3.067.234 2.09.527 2.657 1.406 2.657 1.075 0 1.094-.157 1.094-8.829 0-4.785-.078-8.144-.195-8.457-.39-1.035-.782-1.074-10.04-1.074-8.085 0-8.554-.02-9.57-.39-2.03-.762-3.554-2.383-4.218-4.473-.352-1.113-.391-1.777-.391-6.7v-5.468l-.567-.566c-.43-.41-.761-.567-1.288-.567-.528 0-.86.156-1.29.566z" fill="#fff"/><path d="M79.688 40l-.586.586v5.352c0 4.765.039 5.41.37 6.113.41.898 1.055 1.543 1.837 1.836.351.136 3.261.215 8.242.215h7.676l.507-.606c.274-.332.508-.8.508-1.074 0-.45-2.148-3.77-5.508-8.516-1.465-2.09-2.753-3.164-4.628-3.906-.938-.371-1.563-.43-4.454-.508l-3.379-.078-.585.586zM2.871 46.68c-.605.488-.82 1.27-.508 1.992.352.86 1.094 1.133 3.008 1.133 2.324 0 3.008-.41 3.028-1.817 0-.527-.137-.879-.489-1.21-.43-.45-.605-.489-2.5-.489-1.738 0-2.11.059-2.539.39z" fill="#fff"/><path d="M28.613 64.297c-1.797.332-3.77 1.445-5.273 2.969-2.149 2.168-3.027 4.316-3.027 7.343 0 3.047.898 5.215 3.007 7.344 3.36 3.36 8.067 4.14 12.266 2.012 1.387-.703 3.203-2.344 4.082-3.711 2.129-3.32 2.129-7.969-.02-11.309-.918-1.425-2.754-3.027-4.355-3.789-2.148-1.035-4.336-1.308-6.68-.86zM81.348 64.297c-1.739.312-3.79 1.465-5.196 2.87-2.09 2.09-3.105 4.513-3.105 7.442 0 2.93 1.016 5.352 3.105 7.442 2.598 2.597 6.211 3.652 9.746 2.812 2.618-.625 4.98-2.324 6.524-4.668 2.129-3.261 2.129-7.89 0-11.172-2.422-3.71-6.719-5.566-11.074-4.726z" fill="#F88506"/></g><defs><clipPath id="bclip0_17_177"><path fill="#fff" d="M0 0h100v100H0z"/></clipPath></defs></svg><svg fill="none" viewBox="0 0 100 100" id="flowers" xmlns="http://www.w3.org/2000/svg"><path d="M65.625 7.188c-1.016 1.015-.86 1.562.996 3.476 1.66 1.7 2.246 1.992 3.184 1.64.586-.214 1.074-1.171.957-1.835-.059-.254-.82-1.172-1.68-2.031-1.953-1.934-2.54-2.149-3.457-1.25zM74.277 8.457c-2.07 2.07-2.226 2.5-1.23 3.496.527.508.703.586 1.328.489.586-.098 1.055-.45 2.344-1.758 1.387-1.426 1.601-1.739 1.601-2.305-.02-.742-.273-1.172-.918-1.504-.879-.469-1.25-.293-3.125 1.582zM68.828 14.219c-.234.039-1.172.84-2.11 1.777-1.386 1.445-1.679 1.836-1.679 2.344 0 .879.742 1.582 1.68 1.582.625 0 .898-.176 2.226-1.485.84-.82 1.64-1.738 1.778-2.07.468-1.133-.625-2.363-1.895-2.148zM73.477 14.375c-.762.313-1.075.918-.938 1.719.098.468.586 1.093 1.758 2.226 1.66 1.621 2.148 1.856 3.145 1.485.37-.157.878-1.075.878-1.66 0-.528-3.164-3.81-3.808-3.926-.254-.059-.723.02-1.035.156zM92.46 15.254c-1.034.293-2.48 1.387-3.144 2.383-1.543 2.305-1.172 5.508.86 7.383 1.23 1.133 2.343 1.582 3.984 1.582 2.305 0 4.258-1.23 5.293-3.34.664-1.348.625-3.652-.078-5.02-1.29-2.46-4.278-3.75-6.914-2.988zm3.067 3.555c.781.527 1.29 1.738 1.075 2.578-.079.293-.43.84-.801 1.21-.567.567-.782.645-1.621.645-1.192 0-2.07-.625-2.364-1.718-.644-2.266 1.758-4.024 3.711-2.715zM7.676 16.797c-.899.371-1.074.976-.996 3.418.058 2.129.097 2.305.527 2.656.703.567 1.836.488 2.344-.137.351-.449.41-.8.41-2.734 0-2.012-.039-2.246-.43-2.695-.507-.567-1.23-.762-1.855-.508zM48.633 21.27c-4.961 3.77-8.711 9.726-9.903 15.78-.39 2.071-.449 6.954-.078 8.829.39 2.012 1.152 4.473 1.895 6.055l.683 1.484.625-1.23c1.504-2.95 3.653-5.098 6.504-6.504l1.563-.782.879.332c2.968 1.153 5.78 3.848 7.402 7.051l.566 1.133.684-1.484c2.578-5.547 2.91-12.54.86-18.301-1.387-3.965-3.536-7.305-6.563-10.235-1.563-1.503-3.496-3.085-3.79-3.085-.038 0-.624.43-1.327.957zM.977 23.574c-1.29.664-1.29 2.188 0 2.852.566.293 1.054.351 2.714.293 1.934-.059 2.032-.098 2.48-.606.606-.703.606-1.523 0-2.226-.448-.508-.546-.547-2.48-.606-1.66-.058-2.148 0-2.714.293zM11.016 23.516c-1.407.625-1.27 2.558.215 3.047.449.156 1.425.214 2.558.156 1.582-.059 1.895-.137 2.324-.547a1.603 1.603 0 00-.02-2.363c-.448-.41-.683-.47-2.48-.508-1.386-.04-2.168.02-2.597.215zM7.207 27.129c-.45.351-.469.488-.469 2.832 0 2.266.04 2.48.43 2.89.644.645 1.738.587 2.324-.117.43-.488.469-.703.469-2.734 0-1.933-.059-2.285-.41-2.734-.508-.625-1.64-.703-2.344-.137zM21.289 33.73c-1.836.098-3.672.47-3.79.743-.038.136-.194 1.308-.331 2.617-.41 3.906.234 8.418 1.738 12.148.664 1.68.332 1.582 4.043 1.055 3.965-.566 8.965-.137 12.48 1.074.645.215 1.192.352 1.231.313.059-.04-.137-.801-.41-1.68-1.055-3.3-1.426-7.559-1.035-11.64l.136-1.583-1.406-.644C30 34.375 25.352 33.496 21.29 33.73zM75.684 33.711c-3.614.313-6.309.977-9.258 2.266l-1.817.8.118.899c.566 4.433.195 8.77-1.075 12.676-.234.683-.37 1.27-.332 1.328.059.039.606-.098 1.25-.313 3.516-1.21 8.516-1.64 12.48-1.074 3.712.527 3.38.625 4.044-1.055 1.465-3.672 2.129-8.203 1.738-11.953-.312-3.222-.234-3.047-1.738-3.281-1.543-.234-4.317-.39-5.41-.293z" fill="#fff"/><path d="M48.926 49.102c-3.086 2.03-5.059 5.351-5.45 9.12-.234 2.13-.058 2.579 1.211 3.36 2.676 1.66 5.137 4.707 6.094 7.54.274.76.567 1.386.664 1.386.098 0 .801-.645 1.563-1.426 2.52-2.559 3.437-5.078 3.476-9.414.02-2.285-.039-2.695-.527-4.18-.918-2.715-2.598-4.902-4.863-6.367-.586-.371-1.094-.684-1.133-.664-.04 0-.488.293-1.035.645z" fill="#007E62"/><path d="M22.656 53.633c-4.59.742-9.55 3.144-12.988 6.289-1.25 1.152-3.105 3.223-3.848 4.297l-.566.82 1.074 1.426c2.305 3.086 6.27 6.25 9.766 7.852 1.797.82 4.14 1.542 6.367 1.953 1.895.351 6.973.43 7.305.097.136-.136.117-.195-.04-.195-.39 0-2.968-2.578-3.788-3.79-1.641-2.401-2.657-5.526-2.52-7.773.02-.468 1.23-1.757 2.598-2.832 1.425-1.074 3.965-2.285 5.742-2.714 1.758-.43 5.039-.43 6.777 0 .742.175 1.426.312 1.524.312.117 0 .175-.469.136-1.113l-.058-1.133-2.149-1.074c-3.652-1.856-6.406-2.54-10.644-2.657-1.934-.039-3.418.02-4.688.235zM70.02 53.535c-2.93.371-6.211 1.465-8.829 2.91l-1.425.801v1.055c0 .586.078 1.074.175 1.074.118 0 .782-.137 1.524-.313 1.894-.468 5.195-.43 7.11.079 2.421.644 4.784 1.953 6.698 3.75 1.27 1.172 1.465 1.66 1.25 3.183-.488 3.594-2.558 7.227-5.449 9.512-.527.41-.879.8-.761.879.39.254 5.468.117 7.226-.196 6.348-1.093 12.324-4.726 16.055-9.726L94.727 65l-.567-.82c-1.347-1.954-4.004-4.57-6.308-6.211-5.02-3.614-11.543-5.215-17.833-4.434z" fill="#fff"/><path d="M33.477 62.09c-2.051.332-4.551 1.465-5.977 2.754l-.82.722.254 1.114c.84 3.808 4.218 7.265 8.359 8.613l1.035.332.918-.82c2.285-1.993 5.137-3.203 8.516-3.575 1.328-.136 2.09-.312 2.09-.449 0-.527-1.621-3.379-2.442-4.316-2.617-2.969-8.086-4.98-11.933-4.375zM63.047 62.11c-.527.078-1.484.351-2.168.566l-1.25.43-.254 1.113c-.762 3.437-3.047 6.875-5.957 8.965-.586.41-.586.43-.195.742.8.644 3.183 1.68 4.59 1.972 2.578.547 6.035 0 8.984-1.425 2.93-1.406 5.527-4.668 6.25-7.832.293-1.25.176-1.426-1.777-2.696-2.344-1.523-5.743-2.285-8.223-1.836zM44.629 74.727c-2.871.625-5.137 2.129-7.344 4.902-2.07 2.598-2.91 4.941-2.91 8.066 0 1.934.156 2.754.82 4.434.371.977.43 1.016 1.27 1.152 1.054.156 2.91-.02 4.355-.43 2.578-.742 5.47-2.89 6.72-5l.507-.878-.39-.899c-1.446-3.261-1.563-8.086-.294-11.328.117-.273.02-.332-.605-.312-.43 0-1.367.136-2.13.293zM50.215 76.719c-.371 1.113-.488 4.336-.215 5.742.469 2.402 2.344 5.683 4.316 7.598 2.344 2.265 6.348 3.652 9.239 3.222.82-.136.879-.175 1.25-1.152.664-1.68.82-2.5.82-4.434 0-2.851-.8-5.351-2.402-7.441l-.664-.84-2.52-.039c-1.934-.02-2.852-.117-3.945-.45-1.68-.487-3.477-1.366-4.746-2.284l-.899-.645-.234.723z" fill="#007E62"/></svg><svg fill="none" viewBox="0 0 40 40" id="instagram" xmlns="http://www.w3.org/2000/svg"><path d="M20 3.077c-4.592 0-5.17.021-6.974.101-1.805.085-3.034.369-4.11.787a8.286 8.286 0 00-2.998 1.953 8.307 8.307 0 00-1.953 2.997c-.418 1.075-.704 2.306-.787 4.104-.08 1.809-.101 2.384-.101 6.983 0 4.595.021 5.17.101 6.975.085 1.802.369 3.03.787 4.108a8.312 8.312 0 001.953 2.997 8.259 8.259 0 002.995 1.953c1.08.418 2.306.704 4.108.787 1.807.08 2.382.101 6.979.101 4.597 0 5.17-.021 6.977-.102 1.8-.084 3.033-.368 4.11-.786a8.284 8.284 0 002.995-1.953 8.313 8.313 0 001.953-2.997c.416-1.077.702-2.306.787-4.108.08-1.805.101-2.38.101-6.977s-.021-5.172-.102-6.979c-.084-1.8-.37-3.031-.786-4.106a8.306 8.306 0 00-1.953-2.997 8.273 8.273 0 00-2.997-1.953c-1.08-.418-2.31-.704-4.11-.787-1.807-.08-2.38-.101-6.98-.101h.007H20zm-1.517 3.05h1.52c4.518 0 5.053.015 6.836.098 1.65.074 2.547.35 3.144.581a5.25 5.25 0 011.946 1.267 5.228 5.228 0 011.265 1.947c.232.594.507 1.49.581 3.14.083 1.784.1 2.32.1 6.836s-.017 5.053-.1 6.837c-.074 1.65-.35 2.545-.581 3.141a5.225 5.225 0 01-1.268 1.944 5.23 5.23 0 01-1.946 1.265c-.592.233-1.489.508-3.141.584-1.783.08-2.318.1-6.837.1-4.518 0-5.056-.02-6.839-.1-1.65-.076-2.545-.351-3.141-.584a5.243 5.243 0 01-1.946-1.265 5.247 5.247 0 01-1.27-1.946c-.23-.595-.507-1.491-.581-3.141-.08-1.784-.098-2.319-.098-6.84 0-4.518.017-5.051.098-6.834.076-1.65.35-2.547.583-3.144a5.25 5.25 0 011.268-1.946 5.229 5.229 0 011.946-1.265c.596-.233 1.491-.508 3.141-.584 1.561-.072 2.166-.093 5.32-.095v.004zm10.552 2.81a2.031 2.031 0 100 4.062 2.031 2.031 0 000-4.062zm-9.033 2.373a8.692 8.692 0 10-.271 17.381 8.692 8.692 0 00.271-17.381zm0 3.048a5.641 5.641 0 110 11.283 5.641 5.641 0 010-11.283z" fill="#fff"/></svg><svg fill="none" viewBox="0 0 164 76" id="logo" xmlns="http://www.w3.org/2000/svg"><path d="M84.42 25.28c.587 0 1.2.053 1.84.16.64.093 1.14.22 1.5.38.12.04.193.093.22.16.04.053.073.153.1.3l.24 2.78c0 .04-.033.067-.1.08-.067.013-.107-.007-.12-.06-.453-1.053-1.06-1.867-1.82-2.44s-1.64-.86-2.64-.86c-1.32 0-2.34.487-3.06 1.46-.72.973-1.08 2.28-1.08 3.92 0 1.227.193 2.347.58 3.36.4 1.013.953 1.82 1.66 2.42a3.76 3.76 0 002.44.88c.853 0 1.613-.28 2.28-.84.68-.573 1.287-1.44 1.82-2.6.013-.053.053-.073.12-.06.08.013.12.04.12.08l-.3 2.72c-.027.16-.06.267-.1.32-.027.04-.1.087-.22.14-1.187.44-2.407.66-3.66.66-1.627 0-2.987-.32-4.08-.96-1.093-.653-1.9-1.473-2.42-2.46-.507-1-.76-2.04-.76-3.12 0-1.267.34-2.387 1.02-3.36.693-.973 1.607-1.727 2.74-2.26a8.62 8.62 0 013.68-.8zm14.979 12.48c.053 0 .08.04.08.12 0 .08-.027.12-.08.12-.347 0-.627-.007-.84-.02l-1.16-.02-1.2.02c-.2.013-.473.02-.82.02-.027 0-.04-.04-.04-.12 0-.08.013-.12.04-.12.413 0 .693-.093.84-.28.16-.2.24-.567.24-1.1V33.5c0-.72-.133-1.253-.4-1.6-.267-.347-.68-.52-1.24-.52-.32 0-.653.067-1 .2a2.948 2.948 0 00-.88.54v4.26c0 .533.073.9.22 1.1.16.187.447.28.86.28.053 0 .08.04.08.12 0 .08-.027.12-.08.12-.347 0-.627-.007-.84-.02l-1.16-.02-1.2.02c-.2.013-.473.02-.82.02-.027 0-.04-.04-.04-.12 0-.08.013-.12.04-.12.413 0 .693-.093.84-.28.16-.2.24-.567.24-1.1V26.22c0-.467-.047-.8-.14-1a.438.438 0 00-.44-.3c-.187 0-.44.073-.76.22h-.02c-.04 0-.08-.033-.12-.1-.027-.08-.027-.127 0-.14l2.92-1.38.1-.02c.067 0 .133.033.2.1.08.053.12.107.12.16v7.92c.947-1.093 1.96-1.64 3.04-1.64.72 0 1.287.233 1.7.7.427.453.64 1.053.64 1.8v3.84c0 .533.073.9.22 1.1.16.187.447.28.86.28zm6.536-7.68c.306 0 .6.113.88.34.293.213.44.473.44.78a.99.99 0 01-.26.7c-.174.173-.4.26-.68.26-.2 0-.367-.04-.5-.12-.12-.08-.247-.2-.38-.36a1.405 1.405 0 00-.32-.28.453.453 0 00-.3-.1c-.134 0-.28.053-.44.16-.147.093-.38.3-.7.62v4.3c0 .533.126.9.38 1.1.253.187.72.28 1.4.28.053 0 .08.04.08.12 0 .08-.027.12-.08.12-.467 0-.834-.007-1.1-.02l-1.62-.02-1.18.02c-.2.013-.474.02-.82.02-.04 0-.06-.04-.06-.12 0-.08.02-.12.06-.12.413 0 .693-.093.84-.28.146-.2.22-.567.22-1.1v-3.76c0-.413-.054-.713-.16-.9a.476.476 0 00-.46-.3c-.227 0-.547.093-.96.28h-.04c-.04 0-.074-.033-.1-.1-.014-.067-.007-.107.02-.12l2.78-1.36a.814.814 0 01.14-.04c.146 0 .28.14.4.42.133.267.213.633.24 1.1.546-.56.993-.953 1.34-1.18.36-.227.673-.34.94-.34zm2.578 7.92c-.04 0-.06-.04-.06-.12 0-.08.02-.12.06-.12.413 0 .693-.093.84-.28.146-.2.22-.567.22-1.1V32.8c0-.453-.047-.78-.14-.98a.476.476 0 00-.46-.3c-.174 0-.42.073-.74.22h-.02c-.054 0-.094-.033-.12-.1-.027-.08-.02-.127.02-.14l3.02-1.4.06-.02c.066 0 .133.033.2.1.066.067.1.127.1.18v.44c-.027.533-.04 1.187-.04 1.96v3.62c0 .533.073.9.22 1.1.16.187.446.28.86.28.04 0 .06.04.06.12 0 .08-.02.12-.06.12-.347 0-.62-.007-.82-.02l-1.2-.02-1.18.02c-.2.013-.474.02-.82.02zm1.92-9.9c-.387 0-.687-.107-.9-.32-.214-.213-.32-.513-.32-.9 0-.347.106-.62.32-.82.226-.213.526-.32.9-.32.373 0 .66.1.86.3.2.2.3.48.3.84 0 .387-.1.687-.3.9-.2.213-.487.32-.86.32zm5.114 3.14c0 .387.133.72.4 1 .28.28.68.573 1.2.88.506.293.88.527 1.12.7.253.16.48.393.68.7.2.293.3.653.3 1.08 0 .453-.114.88-.34 1.28-.227.4-.567.727-1.02.98-.454.24-.994.36-1.62.36-.734 0-1.427-.18-2.08-.54-.08-.08-.12-.16-.12-.24l-.04-1.98c0-.04.033-.06.1-.06.08-.013.126-.007.14.02a3.95 3.95 0 001.06 1.7c.493.467.993.7 1.5.7.28 0 .5-.087.66-.26.173-.173.26-.427.26-.76 0-.493-.14-.88-.42-1.16-.28-.293-.694-.593-1.24-.9-.467-.253-.82-.46-1.06-.62a2.244 2.244 0 01-.64-.68c-.187-.293-.28-.653-.28-1.08 0-.787.28-1.36.84-1.72.56-.373 1.246-.56 2.06-.56.306 0 .58.02.82.06.253.04.533.12.84.24.12.04.18.113.18.22 0 .333-.007.593-.02.78l-.02 1c0 .04-.04.06-.12.06-.08 0-.12-.02-.12-.06 0-.253-.107-.527-.32-.82a2.796 2.796 0 00-.84-.78 1.904 1.904 0 00-1.04-.32c-.547 0-.82.26-.82.78zm11.058 5.36c.053 0 .093.027.12.08.04.053.04.093 0 .12-.493.493-.973.86-1.44 1.1-.467.227-.96.34-1.48.34-.587 0-1.087-.14-1.5-.42-.413-.28-.62-.753-.62-1.42v-4.44c0-.413-.073-.7-.22-.86-.147-.16-.413-.24-.8-.24-.013 0-.033-.02-.06-.06a.387.387 0 010-.24c.013-.04.033-.06.06-.06.68-.027 1.227-.173 1.64-.44.427-.267.753-.673.98-1.22.027-.053.08-.08.16-.08.093 0 .14.027.14.08v1.6c.773-.013 1.64-.073 2.6-.18.027 0 .053.053.08.16.04.093.06.2.06.32 0 .133-.027.267-.08.4-.04.12-.087.173-.14.16a12.973 12.973 0 00-2.52-.3v4.74c0 .507.127.88.38 1.12.267.24.613.36 1.04.36.533 0 1.053-.2 1.56-.6l.04-.02zm15.619 1.16c.053 0 .08.04.08.12 0 .08-.027.12-.08.12-.347 0-.62-.007-.82-.02l-1.2-.02-1.16.02c-.214.013-.494.02-.84.02-.04 0-.06-.04-.06-.12 0-.08.02-.12.06-.12.413 0 .693-.093.84-.28.16-.2.24-.567.24-1.1V33.5c0-.72-.127-1.253-.38-1.6-.24-.347-.614-.52-1.12-.52-.347 0-.687.073-1.02.22-.334.147-.62.347-.86.6v4.18c0 .533.073.9.22 1.1.16.187.446.28.86.28.053 0 .08.04.08.12 0 .08-.027.12-.08.12-.347 0-.62-.007-.82-.02l-1.2-.02-1.16.02c-.214.013-.494.02-.84.02-.04 0-.06-.04-.06-.12 0-.08.02-.12.06-.12.413 0 .693-.093.84-.28.16-.2.24-.567.24-1.1V33.5c0-.72-.127-1.253-.38-1.6-.24-.347-.614-.52-1.12-.52-.32 0-.64.067-.96.2-.307.12-.58.293-.82.52v4.28c0 .533.073.9.22 1.1.16.187.446.28.86.28.04 0 .06.04.06.12 0 .08-.02.12-.06.12-.347 0-.62-.007-.82-.02l-1.2-.02-1.18.02c-.2.013-.474.02-.82.02-.04 0-.06-.04-.06-.12 0-.08.02-.12.06-.12.413 0 .693-.093.84-.28.146-.2.22-.567.22-1.1v-3.76c0-.413-.054-.713-.16-.9a.476.476 0 00-.46-.3c-.227 0-.547.093-.96.28h-.04c-.04 0-.074-.033-.1-.1-.014-.067-.007-.107.02-.12l2.78-1.36a.814.814 0 01.14-.04c.146 0 .286.147.42.44.133.28.213.66.24 1.14.906-1.08 1.88-1.62 2.92-1.62.626 0 1.126.153 1.5.46.373.307.6.747.68 1.32.92-1.187 1.94-1.78 3.06-1.78.72 0 1.266.207 1.64.62.386.413.58 1.04.58 1.88v3.84c0 .533.073.9.22 1.1.16.187.446.28.86.28zm8.947-.84c.053 0 .086.033.1.1.026.053.013.093-.04.12l-2.06.98a.447.447 0 01-.2.04c-.2 0-.4-.1-.6-.3-.187-.2-.32-.473-.4-.82l-.92.5c-.347.173-.707.32-1.08.44-.374.107-.707.16-1 .16-.427 0-.767-.107-1.02-.32-.24-.227-.36-.547-.36-.96 0-.307.073-.553.22-.74.16-.187.38-.34.66-.46.293-.133.753-.307 1.38-.52l2.04-.66V32.9c0-.8-.08-1.387-.24-1.76-.16-.387-.42-.58-.78-.58a.91.91 0 00-.76.36c-.187.24-.3.633-.34 1.18-.08.747-.474 1.12-1.18 1.12-.627 0-.94-.273-.94-.82 0-.36.226-.72.68-1.08.453-.36 1-.653 1.64-.88.64-.227 1.2-.34 1.68-.34.626 0 1.133.187 1.52.56.4.373.6.92.6 1.64v3.54c0 .387.066.687.2.9a.69.69 0 00.6.32c.186 0 .38-.047.58-.14h.02zm-3.26-.2a3.115 3.115 0 01-.02-.42v-1.48l-1.1.4c-.36.133-.62.28-.78.44a.826.826 0 00-.22.58c0 .28.08.5.24.66.16.16.36.24.6.24.293 0 .633-.093 1.02-.28l.26-.14zm5.858-5.48c0 .387.133.72.4 1 .28.28.68.573 1.2.88.506.293.88.527 1.12.7.253.16.48.393.68.7.2.293.3.653.3 1.08 0 .453-.114.88-.34 1.28-.227.4-.567.727-1.02.98-.454.24-.994.36-1.62.36-.734 0-1.427-.18-2.08-.54-.08-.08-.12-.16-.12-.24l-.04-1.98c0-.04.033-.06.1-.06.08-.013.126-.007.14.02a3.95 3.95 0 001.06 1.7c.493.467.993.7 1.5.7.28 0 .5-.087.66-.26.173-.173.26-.427.26-.76 0-.493-.14-.88-.42-1.16-.28-.293-.694-.593-1.24-.9-.467-.253-.82-.46-1.06-.62a2.244 2.244 0 01-.64-.68c-.187-.293-.28-.653-.28-1.08 0-.787.28-1.36.84-1.72.56-.373 1.246-.56 2.06-.56.306 0 .58.02.82.06.253.04.533.12.84.24.12.04.18.113.18.22 0 .333-.007.593-.02.78l-.02 1c0 .04-.04.06-.12.06-.08 0-.12-.02-.12-.06 0-.253-.107-.527-.32-.82a2.796 2.796 0 00-.84-.78 1.904 1.904 0 00-1.04-.32c-.547 0-.82.26-.82.78zM80.44 47.96c-1.587 0-2.727 1.033-3.42 3.1-.013.04-.053.06-.12.06-.067-.013-.1-.04-.1-.08.053-.533.113-1.22.18-2.06.067-.853.1-1.493.1-1.92 0-.067.033-.1.1-.1.08 0 .12.033.12.1 0 .293.38.44 1.14.44 1.147.04 2.487.06 4.02.06.787 0 1.62-.013 2.5-.04l1.36-.02c.507 0 .873-.033 1.1-.1.24-.067.393-.2.46-.4.013-.053.053-.08.12-.08.08 0 .12.027.12.08-.04.4-.087 1.04-.14 1.92-.04.88-.06 1.587-.06 2.12 0 .04-.033.06-.1.06s-.107-.02-.12-.06c-.2-1.027-.573-1.793-1.12-2.3-.547-.52-1.22-.78-2.02-.78-.387 0-.647.087-.78.26-.12.16-.18.473-.18.94v9.22c0 .413.04.713.12.9.08.187.233.313.46.38s.587.1 1.08.1c.04 0 .06.04.06.12 0 .08-.02.12-.06.12-.48 0-.86-.007-1.14-.02l-1.66-.02-1.62.02c-.28.013-.667.02-1.16.02-.04 0-.06-.04-.06-.12 0-.08.02-.12.06-.12.48 0 .833-.033 1.06-.1.24-.067.4-.193.48-.38.093-.2.14-.5.14-.9v-9.26c0-.453-.06-.76-.18-.92-.12-.16-.367-.24-.74-.24zm12.95 4.12c.308 0 .6.113.88.34.294.213.44.473.44.78 0 .28-.086.513-.26.7-.172.173-.4.26-.68.26-.2 0-.366-.04-.5-.12-.12-.08-.246-.2-.38-.36a1.397 1.397 0 00-.32-.28.453.453 0 00-.3-.1c-.132 0-.28.053-.44.16-.146.093-.38.3-.7.62v4.3c0 .533.128.9.38 1.1.254.187.72.28 1.4.28.054 0 .08.04.08.12 0 .08-.026.12-.08.12-.466 0-.832-.007-1.1-.02l-1.62-.02-1.18.02c-.2.013-.472.02-.82.02-.04 0-.06-.04-.06-.12 0-.08.02-.12.06-.12.414 0 .694-.093.84-.28.148-.2.22-.567.22-1.1v-3.76c0-.413-.052-.713-.16-.9a.475.475 0 00-.46-.3c-.226 0-.546.093-.96.28h-.04c-.04 0-.072-.033-.1-.1-.012-.067-.006-.107.02-.12l2.78-1.36a.833.833 0 01.14-.04c.148 0 .28.14.4.42.134.267.214.633.24 1.1.548-.56.994-.953 1.34-1.18.36-.227.674-.34.94-.34zm9.325 6.6c.026 0 .053.027.08.08.04.053.046.093.02.12-.494.48-.994.827-1.5 1.04-.507.213-1.06.32-1.66.32-.84 0-1.567-.173-2.18-.52a3.67 3.67 0 01-1.4-1.42 4.02 4.02 0 01-.48-1.92c0-.773.2-1.487.6-2.14.4-.667.946-1.187 1.64-1.56.693-.387 1.466-.58 2.32-.58.826 0 1.46.18 1.9.54.44.347.66.827.66 1.44 0 .387-.074.58-.22.58h-1.22l-3.6.04c-.04.253-.06.533-.06.84 0 1.147.266 2.053.8 2.72.546.667 1.293 1 2.24 1 .333 0 .68-.047 1.04-.14.36-.093.686-.233.98-.42l.04-.02zm-3.3-6.18c-.4 0-.747.16-1.04.48-.294.32-.507.76-.64 1.32l2.84-.06c-.04-1.16-.427-1.74-1.16-1.74zm11.742 6.18c.027 0 .053.027.08.08.04.053.047.093.02.12-.493.48-.993.827-1.5 1.04-.507.213-1.06.32-1.66.32-.84 0-1.567-.173-2.18-.52a3.672 3.672 0 01-1.4-1.42 4.02 4.02 0 01-.48-1.92c0-.773.2-1.487.6-2.14.4-.667.947-1.187 1.64-1.56.693-.387 1.467-.58 2.32-.58.827 0 1.46.18 1.9.54.44.347.66.827.66 1.44 0 .387-.073.58-.22.58h-1.22l-3.6.04c-.04.253-.06.533-.06.84 0 1.147.267 2.053.8 2.72.547.667 1.293 1 2.24 1 .333 0 .68-.047 1.04-.14.36-.093.687-.233.98-.42l.04-.02zm-3.3-6.18c-.4 0-.747.16-1.04.48-.293.32-.507.76-.64 1.32l2.84-.06c-.04-1.16-.427-1.74-1.16-1.74zm6.459.74c0 .387.134.72.4 1 .28.28.68.573 1.2.88.507.293.88.527 1.12.7.254.16.48.393.68.7.2.293.3.653.3 1.08 0 .453-.113.88-.34 1.28-.226.4-.566.727-1.02.98-.453.24-.993.36-1.62.36-.733 0-1.426-.18-2.08-.54-.08-.08-.12-.16-.12-.24l-.04-1.98c0-.04.034-.06.1-.06.08-.013.127-.007.14.02a3.97 3.97 0 001.06 1.7c.494.467.994.7 1.5.7.28 0 .5-.087.66-.26.174-.173.26-.427.26-.76 0-.493-.14-.88-.42-1.16-.28-.293-.693-.593-1.24-.9-.466-.253-.82-.46-1.06-.62a2.256 2.256 0 01-.64-.68c-.186-.293-.28-.653-.28-1.08 0-.787.28-1.36.84-1.72.56-.373 1.247-.56 2.06-.56.307 0 .58.02.82.06.254.04.534.12.84.24.12.04.18.113.18.22 0 .333-.006.593-.02.78l-.02 1c0 .04-.04.06-.12.06-.08 0-.12-.02-.12-.06 0-.253-.106-.527-.32-.82a2.773 2.773 0 00-.84-.78 1.902 1.902 0 00-1.04-.32c-.546 0-.82.26-.82.78z" fill="#00654E"/><g clip-path="url(#eclip0_42_2)" fill-rule="evenodd" clip-rule="evenodd"><path d="M36.145-.074h1.335a306.002 306.002 0 00-4.23 8.015 76.857 76.857 0 00-3.563 8.313 15.262 15.262 0 00-1.039 6.68c.148.84.618 1.409 1.41 1.707 6.438.528 12.87.454 19.297-.223a112.369 112.369 0 013.415 4.305c-.07.177-.219.276-.446.297a104.905 104.905 0 01-20.484 1.187c-2.356 5.33-4.731 10.65-7.125 15.957a4.882 4.882 0 001.93.223 125.673 125.673 0 012.894-8.61 297.997 297.997 0 012.152 9.055c7.756.344 15.475-.002 23.157-1.039a82.26 82.26 0 003.71 4.602 86.701 86.701 0 01-12.765 1.707c-6.088.314-12.174.289-18.258-.075l-.594.149a28.78 28.78 0 00-4.972 7.718c-.937 1.972-.888 3.901.148 5.79a6.65 6.65 0 003.043 1.93 96.29 96.29 0 01-9.5-1.114c-2.499-.13-4.404-1.242-5.715-3.34-.767-2.01-.421-3.791 1.04-5.344 3.357-3.92 6.697-7.853 10.019-11.8a68.875 68.875 0 01-4.305-1.04c-3.214-1.79-3.684-4.14-1.41-7.05a721.26 721.26 0 0011.207-13.434 38.824 38.824 0 00-3.562-.594c-2.628-.444-3.74-1.953-3.34-4.527A1190.112 1190.112 0 0033.695 1.855a6.536 6.536 0 012.45-1.93z" fill="#3DAD52"/><path opacity=".993" d="M37.48-.074h2.227c.76.286 1.428.731 2.004 1.336a663.017 663.017 0 0014.547 17.96c.612 2.117-.106 3.577-2.153 4.38-1.566.375-3.15.647-4.75.816-6.426.677-12.858.751-19.296.223-.793-.298-1.263-.867-1.41-1.707a15.26 15.26 0 011.038-6.68A76.857 76.857 0 0133.25 7.94a306.004 306.004 0 014.23-8.015z" fill="#4CC067"/><path opacity=".995" d="M52.77 28.723a6258.95 6258.95 0 018.683 10.242c1.123 2.26.653 4.116-1.41 5.566a12.296 12.296 0 01-5.195 1.262 129.796 129.796 0 01-23.157 1.039 298.295 298.295 0 00-2.152-9.055 125.674 125.674 0 00-2.895 8.61 4.882 4.882 0 01-1.93-.223c2.395-5.308 4.77-10.627 7.126-15.957 6.863.274 13.691-.122 20.484-1.188.227-.02.376-.12.446-.296z" fill="#4CC067"/><path opacity=".992" d="M58.559 50.395c2.319 2.79 4.669 5.56 7.05 8.312 1.428 2.807.81 5.058-1.855 6.754a14.706 14.706 0 01-4.527 1.262 208.453 208.453 0 01-5.79-7.422c-.074 2.72-.098 5.442-.074 8.164-2.864.28-5.733.478-8.61.594-4.552.178-9.105.178-13.655 0a52.324 52.324 0 01-5.938-.446 6.65 6.65 0 01-3.043-1.93c-1.036-1.888-1.085-3.817-.148-5.789a28.778 28.778 0 014.972-7.718l.594-.149c6.084.364 12.17.389 18.258.075a86.7 86.7 0 0012.766-1.707z" fill="#4DC067"/><path opacity=".98" d="M31.098 68.059c4.55.178 9.103.178 13.656 0 .224.873.372 1.763.445 2.672-2.943.148-5.911.197-8.906.148v4.898a19.319 19.319 0 01-6.086-1.633l-.148-.296c.362-1.929.708-3.858 1.039-5.79z" fill="#7F4A26"/><path d="M45.2 70.73c.226.964.424 1.953.593 2.97l-.148.444a19.138 19.138 0 01-9.352 1.633V70.88c2.995.049 5.963 0 8.906-.148z" fill="#925C34"/></g><defs><clipPath id="eclip0_42_2"><path fill="#fff" d="M0 0h76v76H0z"/></clipPath></defs></svg><svg fill="none" viewBox="0 0 40 40" id="telegram" xmlns="http://www.w3.org/2000/svg"><path d="M32.587 4.995c-.4.03-.795.123-1.166.279h-.005c-.356.141-2.05.854-4.625 1.934l-9.227 3.886c-6.621 2.787-13.13 5.532-13.13 5.532l.077-.03s-.448.148-.917.47c-.29.183-.539.424-.733.708-.23.337-.415.854-.346 1.387.113.903.698 1.444 1.118 1.743.425.302.83.444.83.444h.01l6.103 2.056c.274.879 1.86 6.094 2.242 7.295.225.717.443 1.166.717 1.509.133.175.287.32.474.438.097.057.2.101.307.133l-.062-.015c.019.005.034.02.047.025.05.014.084.019.148.029.966.292 1.742-.308 1.742-.308l.044-.035 3.604-3.281 6.04 4.634.137.058c1.259.553 2.534.245 3.208-.297a3.265 3.265 0 00.942-1.245l.044-.113 4.667-23.91c.133-.59.167-1.143.02-1.68a2.259 2.259 0 00-.976-1.308 2.34 2.34 0 00-1.334-.338zm-.126 2.563c-.005.078.01.07-.025.22v.015l-4.623 23.662c-.02.034-.054.108-.147.181-.097.078-.175.127-.581-.035l-7.387-5.663-4.463 4.067.938-5.987 12.07-11.25c.497-.463.33-.56.33-.56.036-.568-.75-.167-.75-.167l-15.22 9.43-.005-.026-7.295-2.456v-.005l-.02-.004a.358.358 0 00.038-.015l.04-.02.039-.014s6.514-2.745 13.135-5.532c3.315-1.396 6.655-2.803 9.224-3.888 2.569-1.078 4.467-1.87 4.575-1.912.102-.04.053-.04.127-.04v-.001z" fill="#fff"/></svg><svg fill="none" viewBox="0 0 174 46" id="tinkoff" xmlns="http://www.w3.org/2000/svg"><g clip-path="url(#gclip0_38_24)"><path d="M50.867 21.517l.67-2.14-2.214.07c-.187 0-1.546-.04-2.865-.995.099.01.197.023.297.023 1.357 0 2.67-.817 3.197-1.984l.952-2.11c-1.193.015-2.285-.135-2.285-.135-.01-.002-.87-.112-1.864-1.127-.713-.728-1.596-1.114-2.552-1.114a3.67 3.67 0 00-1.115.177c.05-.17.099-.344.126-.524.304-1.974-.968-3.481-.968-3.48L40.582 6.12l-1.031 2.42c-.004.008-.265.574-.731.852-.14-.711-.486-1.51-1.224-2.276-1.392-1.44-3.087-1.655-3.974-1.655-.41 0-.703.045-.775.056l-2.008.395c.115-.449.362-1.23.813-1.932l1.109-1.727-2.79.318-.889-1.886-1.72.886L25.773 0l-1.587 1.57L22.46.684l-.887 1.886-2.788-.318 1.11 1.727c.452.703.699 1.481.813 1.93l-1.917-.377-.065-.012a5.036 5.036 0 00-.8-.06c-.887 0-2.582.216-3.97 1.655-.74.763-1.085 1.565-1.228 2.276-.463-.274-.721-.833-.721-.833l-1.033-2.433-1.691 2.073c-.207.268-1.226 1.684-.949 3.464.03.178.075.351.126.522a3.648 3.648 0 00-1.113-.177c-.956 0-1.839.386-2.554 1.114-.991 1.011-1.847 1.125-1.84 1.125 0 0-.904.162-2.303.137l.946 2.11c.527 1.17 1.841 1.984 3.197 1.984.102 0 .2-.014.3-.023-1.314.956-2.673.994-2.837.996L0 19.377l.682 2.138c.344 1.103 1.49 2.93 3.689 3.126-.24 1.002-.77 2.123-1.934 2.606l-1.68.692.916 1.593c.517.86 1.73 1.866 3.457 1.866a5.361 5.361 0 001.082-.112c.088.393.2.786.331 1.175.515 1.53.072 2.597.066 2.609l-.83 1.736 1.852.487c.023.008.582.16 1.282.16a3.941 3.941 0 001.527-.299c.239.43.53.821.869 1.172 1.186 1.216 2.865 1.832 4.993 1.832h.008l1.52-.02-3.14 1.303 2.383 1.15c.866.423 1.894.922 2.939 1.303l-.297.813.82.374c.074.033 1.653.74 4.279.89 0 0 .634.029.983.029s.976-.03.976-.03c2.608-.155 4.175-.854 4.249-.889l.823-.376-.3-.815c1.075-.393 2.139-.911 2.968-1.316l2.339-1.134-3.13-1.305 1.526.02c2.13 0 3.811-.617 4.995-1.835.337-.349.628-.74.87-1.17a3.907 3.907 0 001.527.299c.687 0 1.252-.152 1.268-.156l1.858-.491-.81-1.703c-.019-.045-.462-1.11.052-2.642.131-.39.241-.784.33-1.175.35.073.713.112 1.09.112 2.2 0 3.254-1.547 3.458-1.883l.906-1.576-1.68-.69c-1.165-.483-1.694-1.606-1.93-2.606 2.166-.185 3.33-2.012 3.685-3.122zM20.854 6.647l-.023.006.02-.025.003.02z" fill="#fff"/><path d="M25.774 6.553c-1.777.002-3.11.584-3.4 1.268l3.4 1.34 3.401-1.34c-.29-.684-1.621-1.266-3.4-1.268zM25.809 42.051h-.068c-1.078.008-2.56-.213-3.276-.422l-.86 2.326c.567.202 2.488.588 4.17.588 1.68 0 3.602-.387 4.167-.588l-.858-2.325c-.717.21-2.198.43-3.275.421zM32.316 39.739c-.64.362-2.069.906-2.9 1.158l.698 1.92c1.286-.35 2.346-.76 3.224-1.2l-1.448-.481.426-1.397zM19.234 39.739l.428 1.397-1.45.481c.876.44 1.942.85 3.222 1.2l.698-1.92c-.827-.252-2.258-.798-2.898-1.158zM25.774 4.33c1.34 0 2.655.32 3.665.882.093-.31.222-.686.398-1.08l-.382.047-.401.043-.17-.365-.51-1.079-.932.486-.362.185-.29-.285-1.012-1.002-1.01 1.002-.29.285-.362-.185-.936-.486-.506 1.08-.173.364-.401-.043-.382-.046c.176.395.303.769.397 1.079 1.012-.563 2.323-.883 3.66-.883zM46.23 16.8c.175.06.352.086.527.086.758 0 1.49-.49 1.743-1.05 0 0-1.39-.085-2.884-1.601-.476-.491-.98-.638-1.411-.638-.671 0-1.174.355-1.174.355 1.804.96 2.172 2.5 3.2 2.847zM4.792 16.886c.175 0 .352-.027.522-.087 1.031-.346 1.402-1.888 3.206-2.847 0 0-.505-.355-1.172-.355-.434 0-.937.147-1.415.638-1.492 1.516-2.882 1.601-2.882 1.601.248.56.983 1.05 1.74 1.05z" fill="#fff"/><path d="M46.721 23.063c.031.002.058.002.09.002 1.892 0 2.534-2.026 2.534-2.026h-.036c-.347 0-3.16-.08-5.148-2.606-1.309-1.661-2.381-3.122-4.5-3.696l-.208-.036-.046-.212c-.058-.324.164-.627.667-.954 2.923-1.913.939-4.352.939-4.352s-.835 1.951-2.703 1.951l-.139-.002c-.212-.011-.416-.019-.623-.063L37.203 11s.532-1.446-.752-2.776c-.968-1.004-2.145-1.173-2.826-1.173-.343 0-.561.044-.561.044.646.844 1.112 2.243.366 3.106-.644.742-2.217.778-2.217 1.884 0 .468.438 1.015 1.224 1.507 2.366 1.49 4.714 3.464 5.69 6.111 1.22 3.303-.155 5.493-2.117 6.75 0 0 .615.566 1.508.637.18.018.358.025.524.025 1.883 0 2.857-.882 2.857-.882s-.16 1.22-1.141 2.352c-.904 1.047-2.092 1.661-3.902 1.688 0 0-.058.84.744 1.567.513.458 1.698.608 1.698.608s-2.219.45-2.464 3.725c-.133 1.774-.586 2.39-.586 2.39h.041c5.15 0 5.016-4.413 5.016-4.413s.359 1.306 1.795 1.647c.173.046.359.064.536.064.463 0 .864-.108.864-.108s-.752-1.586-.006-3.804c.619-1.84.519-3.204.519-3.204s.694 1.048 2.413 1.058h.018c1.432 0 2.057-1.085 2.057-1.085-3.434-1.424-3.094-6.02-3.094-6.02s.445.33 1.314.364zm-1.033 4.8c-1.396-.687-2.279-2.513-2.493-3.172-.231 3.622-2.001 6.136-4.07 8.556-1.074 1.254-1.447 2.474-1.447 2.474s.206-1.381 1.135-2.507c1.93-2.318 3.763-5.202 3.9-8.537.095-2.327-.505-4.215-1.44-5.77.522 1.62.45 3.605-1.326 5.456 0 0 3.533-4.233-1.408-8.572-1.978-1.65-4.14-2.67-5.255-3.393 4.025 1.312 5.99-.133 5.99-.133-1.286 1.114-2.95 1.095-3.981.935.28.137.57.28.885.447 3.393 1.842 6.443 4.872 6.963 9.07v-.032c.79 4.121 2.547 5.179 2.547 5.179zM13.25 32.45s1.186-.149 1.699-.61c.8-.726.744-1.566.744-1.566-1.812-.025-2.998-.641-3.908-1.686-.974-1.133-1.136-2.352-1.136-2.352s.974.882 2.856.882c.17 0 .345-.008.526-.025.893-.071 1.51-.638 1.51-.638-1.963-1.256-3.34-3.448-2.121-6.75.977-2.646 3.323-4.623 5.69-6.112.786-.492 1.223-1.037 1.223-1.507 0-1.106-1.571-1.143-2.215-1.884-.746-.863-.278-2.264.366-3.106 0 0-.214-.044-.559-.044-.678 0-1.856.17-2.824 1.173-1.288 1.33-.754 2.776-.754 2.776l-.345.068c-.206.044-.413.052-.623.063l-.137.002c-1.872 0-2.703-1.95-2.703-1.95s-1.983 2.44.937 4.353c.504.327.723.63.666.954l-.047.212-.212.036c-2.115.574-3.188 2.035-4.498 3.696-1.983 2.522-4.792 2.604-5.143 2.604h-.039s.642 2.025 2.534 2.025l.09-.001c.87-.031 1.317-.364 1.317-.364s.335 4.595-3.094 6.02c0 0 .624 1.085 2.057 1.085h.017c1.722-.01 2.414-1.058 2.414-1.058s-.1 1.364.516 3.204c.746 2.218-.002 3.804-.002 3.804s.402.108.862.108c.18 0 .363-.018.534-.064 1.434-.341 1.795-1.647 1.795-1.647s-.131 4.414 5.019 4.414h.036s-.451-.617-.582-2.391c-.247-3.276-2.466-3.725-2.466-3.725zm-.827.797c-2.069-2.42-3.836-4.934-4.07-8.556-.214.657-1.093 2.485-2.489 3.173 0 0 1.755-1.058 2.543-5.18v.034c.523-4.197 3.57-7.23 6.966-9.071.31-.17.605-.312.883-.447-1.032.16-2.696.179-3.982-.935 0 0 1.965 1.445 5.989.133-1.115.723-3.276 1.742-5.254 3.393-4.943 4.339-1.407 8.572-1.407 8.572-1.778-1.854-1.849-3.836-1.327-5.456-.937 1.556-1.534 3.443-1.438 5.77.135 3.335 1.969 6.22 3.895 8.537.93 1.124 1.14 2.507 1.14 2.507s-.377-1.22-1.449-2.474zM21.967 16.311a5.197 5.197 0 01.522.667l.048.071c.087.131.168.266.249.405.742 1.281 1.932 2.046 2.986 2.048 1.057-.002 2.243-.767 2.989-2.048.082-.143.166-.282.252-.41.014-.02.027-.037.039-.056a5.404 5.404 0 01.534-.679c.015-.015.027-.029.04-.04a3.08 3.08 0 011.42-.846l-.263-.152h-.016l-1.044-.607-1.074-.615-2.869 1.561-.008-.006-.005.006-2.871-1.56-1.072.612-1.047.607h-.011l-.266.152a3.08 3.08 0 011.42.842c.018.015.03.033.047.048zm2.645-.125h2.427v.832c-.285-.348-.84-.277-.84-.277v1.2s.02.59.227.846h-1.201c.21-.254.23-.846.23-.846v-1.2s-.554-.071-.843.277v-.832z" fill="#fff"/><path d="M25.526 14.571V9.7l-3.104-1.053.819 4.723 2.285 1.202zm-.668-3.676v.782l-.15-.07c-.007-.005-.227-.055-.613-.36-.636-.493-.648-.947-.648-.947l1.412.595zM28.31 13.369l.815-4.723L26.023 9.7v4.872l2.287-1.202zm-1.62-2.474l1.411-.593s-.011.454-.65.947c-.383.305-.605.355-.612.36l-.15.07v-.784h.001zM21.136 25.869c.303.11.669.133.856.133l.027-.087c.017-.056.033-.11.045-.171.052-.27.07-.576.075-.773a1.075 1.075 0 01-.407-.43c-.116-.242-.28-.354-.52-.354-.313 0-.648.187-.791.275-.114.673.381 1.284.715 1.407zM28.001 23.282c-.576.626-1.704 1.716-1.76 1.772l-.067.07-3.565-.056a3.62 3.62 0 01-.116.872l-.029.114 4.242.761c.441-.308 1.656-1.194 2.126-1.541-.343-.501-.376-1.095-.299-1.512a2.162 2.162 0 01-.532-.48z" fill="#fff"/><path d="M28.485 18.997c-.822.816-1.61 1.116-2.314 1.185a3.668 3.668 0 01-.387.021H25.766a3.706 3.706 0 01-.77-.08c-.047.183-.105.566.061.928.149.33.451.575.893.736l.148.058.002.16c0 .048.035 1.085 1.166 1.372.186-.19.353-.362.477-.505-.232-.543-.11-1.098.225-1.37-.015.058-.162 1.418.93 1.923l.179.085-.054.19c-.018.058-.382 1.374.939 1.864l.233.088-.104.228c-.023.05-.542 1.244.678 1.922h2.647v-2.1c-.94-.115-1.34-.87-1.442-1.406-.437-.075-.776-.264-1.008-.572-.555-.73-.077-1.4-.071-1.436-.002.006 0 .719.44 1.158.217.212.476.376.867.413l.193.017.017.197c.004.042.11 1.005 1.006 1.157l-.002-4.288c0-.665.195-1.334.428-1.95h-5.359v.005zM21.361 20.961l-.07 2.733.31.046.76-2.62-.386-.806-.614.647zM29.736 33.492c.023 0 .05.003.075.01.473.134.592 1.837 1.421 1.99.081.017.157.02.222.02.24 0 .382-.102.536-.283 0 0-.416-.655-.729-1.096-.414-.578-.736-1.277-1.507-1.277-.018 0-.04 0-.06.002-.255.013-.41.136-.41.136a1.597 1.597 0 00-.868-.264c-.484 0-.86.222-1.047.222h-.008l-1.723-.17c-.27-.024-.482-.296-.56-.402a.732.732 0 01-.028-.046c0-.047 0-.095-.004-.137-.058-1.409-1.15-2.012-1.537-2.021 0 0 .046-.268-.06-.37l-.38.46-1.247-.626.89 1.039-.755.845c-.094.097-.083.228-.044.282l.326.287.412-.25c.021-.016.058-.02.104-.02.114 0 .286.029.44.029.168 0 .314-.037.332-.195-.052.522-.536 1.43-.218 2.143l.235.537-1.523-.22-.713 1.205c-.22.4-.255.834-.043 1.07l.266.333s.374-.397.46-.657l-.122-.133c-.103-.112-.097-.212-.035-.334l.447-.742 1.799.424.094-.162c.122-.202.297-.264.49-.264.08 0 .16.01.245.024a7.77 7.77 0 001.432.154c.604 0 1.201-.108 1.52-.464.651.965 1.972 1.119 1.868 1.608l-.347 1.653c.23-.01.45-.025.66-.054l.33-1.72c.037-.187.072-.44.072-.44-.127-.129-.436-.402-.61-.733-.233-.448-.105-.68-.323-1.262.007.003.073-.131.225-.131zm-6.728-2.417a.154.154 0 01-.148-.165.155.155 0 01.165-.145.157.157 0 01.149.166.158.158 0 01-.166.144z" fill="#fff"/><path d="M20.552 35.056s.596-.245.65-.42l-.08-.199c-.055-.129-.048-.27.06-.347l.644-.445 1.076.206s-.195-.242-.175-.568l-1.026-.218-.968.59a.939.939 0 00-.308 1.117l.127.284zM28.155 37.858c.193-.007.405-.011.638-.011 0 0 .554-1.617.584-1.669-.31-.136-.954-.478-1.203-.634.164.245.563.526.484.742l-.503 1.572z" fill="#fff"/><path d="M33.422 28.27H18.128v5.75c0 2.35 1.702 3.822 4.214 3.822 2.1 0 2.653.08 3.434.855.538-.535.983-.736 1.897-.811l.02-.089.483-1.489c-.027-.033-.816-.928-.816-.928-.312.104-.574.12-1.016.12-.453 0-.963-.051-1.517-.155a.672.672 0 00-.16-.018c-.067 0-.073.006-.09.039l-.097.158-.175.289-.33-.075-1.467-.345-.2.331.03.035.18.197-.08.256c-.107.335-.458.726-.564.834l-.367.393-.333-.422-.25-.314c-.265-.295-.327-.748-.178-1.221a.022.022 0 01-.016.005l-.414.172-.187-.405-.131-.287a1.397 1.397 0 01.464-1.688l1.182-.666 1.124.221c.027-.108.067-.493.1-.591-.02-.002-.042-.008-.063-.008l-.648.24-.625-.43s-.244-.236-.023-.47l.605-.916-1.532-1.923 2.356.967.156-.194.318-.38.36.343c.103.098.16.22.19.341.65.253 1.812.998 1.914 2.21l-.364.146v.01c.082.099.152.139.173.143l1.681.165c.043-.007.097-.026.156-.044.209-.071.523-.173.895-.173.303 0 .595.07.877.2.104-.038.231-.067.378-.077l.08-.002c.901 0 1.348.672 1.707 1.208.06.093.12.181.181.268.314.443.725 1.092.742 1.12l.186.288-.228.264c-.175.203-.438.44-.889.44-.092 0-.194-.01-.304-.031a1.315 1.315 0 01-.268-.081 7.9 7.9 0 01-.049.285l-.294 1.538c1.764-.434 2.884-1.765 2.884-3.669l.002-5.751zM18.128 27.808h11.893c-.594-.613-.586-1.389-.434-1.894a2.031 2.031 0 01-.443-.29c-.465.342-1.884 1.375-2.254 1.633l-.079.054-4.667-.844h-.095a3.92 3.92 0 01-.455-.025.454.454 0 01-.813.162.444.444 0 01-.081-.343l.017-.1c-.482-.34-.925-1.097-.729-1.894l.02-.085.067-.048c.01-.008.09-.062.21-.131l-.339-.052a.235.235 0 01-.193-.266.23.23 0 01.266-.193l.808.127.073-2.843 1.203-1.272.75 1.578-.792 2.736.713.112a.23.23 0 01-.037.459c-.011 0-.024 0-.036-.003l-.58-.094c.007.017.019.027.027.046.061.127.198.22.28.258l3.558.056c.15-.146.524-.512.908-.9a1.921 1.921 0 01-1.247-1.587c-.49-.208-.827-.52-1.014-.927-.228-.503-.147-1.006-.087-1.25-.474-.174-.974-.49-1.483-.994h-5.36c.23.616.425 1.285.425 1.95v6.864z" fill="#FFDD2D"/><path d="M23.027 30.766a.154.154 0 00-.166.144.153.153 0 00.149.166.157.157 0 00.167-.145c0-.085-.061-.164-.15-.165zM33.401 41.19l-.881-.337.243-.91.268-.992s-1.562.846-3.761 1.482c-.625.179-1.098.26-1.098.26v.674s-1.175.204-2.365.204h-.068c-1.189 0-2.365-.204-2.365-.204v-.674s-.474-.081-1.097-.26c-2.2-.636-3.76-1.482-3.76-1.482l.265.992.248.91-.883.337-.979.366c1.124.541 2.68 1.331 4.105 1.72l-.336.917s1.807.823 4.816.831v.002h.042v-.002c3.014-.008 4.818-.83 4.818-.83l-.337-.918c1.424-.389 2.984-1.179 4.102-1.72l-.977-.366zm-15.188.428l1.45-.482-.428-1.397c.638.362 2.07.906 2.9 1.158l-.7 1.92c-1.28-.352-2.347-.762-3.222-1.2zm7.563 2.924c-1.683 0-3.605-.387-4.17-.587l.86-2.326c.713.208 2.198.43 3.275.422h.068c1.078.008 2.558-.214 3.275-.422l.858 2.326c-.565.202-2.485.587-4.166.587zm4.338-1.724l-.698-1.921c.83-.252 2.26-.796 2.9-1.158l-.427 1.397 1.448.481c-.877.438-1.937.848-3.223 1.2zM25.774 4.891c1.793 0 3.228.594 4.02 1.228 0 0 .235-1.417 1.04-2.667l-1.445.164-.755-1.605-1.452.747-1.407-1.39-1.404 1.39-1.454-.747-.754 1.605-1.444-.164c.804 1.25 1.04 2.667 1.04 2.667.794-.634 2.224-1.228 4.015-1.228zm-3.676-.713l.401.043.174-.364.505-1.08.936.484.363.185.29-.285 1.01-1.002 1.011 1.002.29.285.362-.185.931-.483.511 1.079.17.364.4-.043.383-.046a9.047 9.047 0 00-.398 1.08c-1.01-.563-2.325-.883-3.664-.883-1.334 0-2.648.32-3.662.882a9.22 9.22 0 00-.397-1.079l.384.046zM46.81 23.682c2.319 0 3.094-2.358 3.127-2.458l.258-.831-.87.027h-.003c-.307 0-2.865-.067-4.68-2.372l-.17-.214c-1.187-1.506-2.31-2.938-4.32-3.591a2.02 2.02 0 01.255-.19c1.066-.702 1.687-1.554 1.843-2.542.228-1.487-.72-2.672-.763-2.72l-.646-.798-.403.946c-.027.06-.706 1.574-2.132 1.574H38.2c-.099-.006-.191-.01-.284-.018.05-.676-.073-1.722-1.021-2.703-1.14-1.18-2.54-1.358-3.272-1.358-.392 0-.652.048-.679.052l-.975.193.601.792c.473.61.9 1.738.394 2.327-.163.187-.496.34-.816.491-.657.303-1.554.723-1.554 1.794 0 .694.538 1.418 1.514 2.035 2.888 1.815 4.669 3.709 5.438 5.8 1.19 3.215-.362 5.049-1.87 6.014l-.677.436.592.543c.08.07.804.707 1.874.8.202.013.397.025.578.025.687 0 1.271-.108 1.745-.253-.13.23-.29.463-.493.698-.862.998-1.922 1.453-3.447 1.476l-.567.01-.044.568c-.006.113-.049 1.167.95 2.063.152.139.337.253.53.347-.676.609-1.365 1.668-1.498 3.485-.112 1.517-.474 2.077-.478 2.083l-.626.956 1.131.015c1.87 0 3.303-.516 4.295-1.537a4.872 4.872 0 001.12-1.892 3.042 3.042 0 001.975.724c.528 0 .97-.112 1.02-.123l.723-.193-.32-.674c-.024-.054-.627-1.407.023-3.337.28-.835.422-1.582.491-2.164a3.972 3.972 0 001.853.435c1.79 0 2.578-1.335 2.614-1.39l.353-.613-.654-.27c-2.132-.884-2.604-3.26-2.699-4.547.193.037.413.071.662.079h.108zm1.69 5.036s-.624 1.085-2.057 1.085h-.017c-1.72-.01-2.414-1.058-2.414-1.058s.1 1.364-.52 3.204c-.746 2.218.006 3.804.006 3.804s-.401.108-.864.108a2.1 2.1 0 01-.536-.064c-1.436-.341-1.795-1.647-1.795-1.647s.133 4.414-5.016 4.414h-.04s.452-.617.587-2.391c.245-3.276 2.464-3.724 2.464-3.724s-1.184-.149-1.697-.61c-.802-.726-.746-1.566-.746-1.566 1.813-.025 2.998-.641 3.902-1.688.98-1.133 1.142-2.352 1.142-2.352s-.974.882-2.857.882a5.52 5.52 0 01-.525-.025c-.89-.071-1.507-.638-1.507-.638 1.96-1.256 3.337-3.448 2.117-6.75-.978-2.646-3.326-4.623-5.69-6.112-.786-.491-1.224-1.037-1.224-1.507 0-1.106 1.573-1.14 2.219-1.884.744-.863.278-2.264-.368-3.106 0 0 .218-.044.56-.044.681 0 1.86.171 2.827 1.173 1.286 1.33.752 2.777.752 2.777l.345.067c.206.044.41.052.623.061l.139.002c1.868 0 2.703-1.951 2.703-1.951s1.985 2.44-.938 4.352c-.503.328-.725.63-.667.954l.047.212.208.036c2.119.575 3.19 2.035 4.5 3.696 1.987 2.526 4.8 2.607 5.147 2.607h.037s-.642 2.025-2.534 2.025c-.03 0-.057 0-.09-.002-.87-.031-1.315-.364-1.315-.364s-.341 4.599 3.092 6.024z" fill="#2C3F4D"/><path d="M42.736 14.498c.865.46 1.368 1.077 1.81 1.624.434.534.846 1.048 1.49 1.262.23.08.472.116.72.116.967 0 1.939-.592 2.307-1.41l.37-.821-.896-.054c-.043-.002-1.196-.106-2.48-1.418-.528-.538-1.166-.821-1.854-.821-.84 0-1.464.42-1.533.462l-.825.58.89.48zm1.469-.902c.431 0 .935.147 1.41.638 1.495 1.516 2.885 1.601 2.885 1.601-.253.559-.985 1.05-1.743 1.05-.175 0-.35-.027-.526-.087-1.028-.346-1.396-1.888-3.203-2.847 0 0 .506-.355 1.177-.355zM43.14 22.684v.031c-.52-4.196-3.57-7.227-6.963-9.07-.315-.168-.604-.311-.885-.448 1.033.16 2.697.18 3.98-.934 0 0-1.964 1.445-5.99.133 1.115.722 3.28 1.741 5.256 3.393 4.942 4.338 1.406 8.571 1.406 8.571 1.775-1.851 1.849-3.835 1.326-5.456.935 1.555 1.533 3.443 1.44 5.77-.136 3.336-1.97 6.22-3.9 8.538-.927 1.125-1.135 2.506-1.135 2.506s.374-1.22 1.447-2.474c2.069-2.42 3.837-4.934 4.068-8.556.214.657 1.095 2.486 2.493 3.173.004.002-1.752-1.056-2.543-5.177zM16.807 38.212c-.002-.006-.36-.566-.476-2.083-.135-1.816-.821-2.876-1.5-3.485.197-.092.378-.206.53-.347.997-.896.954-1.95.949-2.063l-.039-.569-.57-.01c-1.522-.024-2.584-.479-3.446-1.475a4.554 4.554 0 01-.493-.697 5.947 5.947 0 001.742.252c.186 0 .377-.012.579-.025a3.422 3.422 0 001.876-.8l.592-.543-.677-.436c-1.513-.967-3.06-2.801-1.872-6.015.77-2.09 2.549-3.984 5.44-5.8.976-.616 1.51-1.34 1.51-2.034 0-1.071-.895-1.493-1.552-1.793-.32-.153-.653-.305-.815-.492-.51-.587-.08-1.716.391-2.327l.605-.792-.979-.193c-.029-.004-.285-.052-.679-.052-.732 0-2.128.177-3.27 1.359-.95.982-1.075 2.028-1.027 2.703-.092.007-.185.011-.281.017h-.104c-1.43 0-2.108-1.514-2.135-1.574l-.403-.946-.651.798c-.037.048-.99 1.235-.758 2.72.154.988.775 1.84 1.841 2.541.116.074.197.14.255.191-2.007.653-3.13 2.087-4.315 3.593l-.172.214c-1.812 2.305-4.376 2.372-4.682 2.372l-.874-.027.266.83c.031.1.804 2.459 3.125 2.459l.112-.004a4.07 4.07 0 00.662-.079c-.097 1.285-.57 3.66-2.703 4.547l-.652.27.353.612c.035.056.825 1.392 2.618 1.392a3.98 3.98 0 001.849-.436c.07.582.212 1.33.491 2.164.65 1.93.045 3.283.022 3.337l-.32.674.725.193c.048.011.493.123 1.02.123a3.013 3.013 0 001.974-.724 4.869 4.869 0 001.118 1.892c.994 1.021 2.425 1.537 4.295 1.537l1.134-.015-.629-.954zm-.547.353c-5.15 0-5.019-4.414-5.019-4.414s-.358 1.306-1.795 1.647a2.07 2.07 0 01-.534.064c-.462 0-.861-.108-.861-.108s.748-1.586.001-3.803c-.616-1.84-.516-3.205-.516-3.205s-.692 1.048-2.414 1.058h-.017c-1.433 0-2.057-1.085-2.057-1.085 3.431-1.424 3.094-6.02 3.094-6.02s-.445.33-1.317.364a1.52 1.52 0 01-.09.002C2.84 23.064 2.2 21.04 2.2 21.04h.039c.349 0 3.158-.081 5.146-2.607 1.309-1.661 2.382-3.12 4.497-3.696l.212-.036.047-.212c.057-.324-.162-.626-.665-.954-2.923-1.913-.937-4.352-.937-4.352s.83 1.95 2.702 1.95l.137-.002c.21-.012.419-.02.623-.064l.345-.068s-.534-1.446.754-2.776c.968-1.004 2.146-1.173 2.824-1.173.345 0 .56.044.56.044-.645.844-1.111 2.243-.367 3.106.644.742 2.215.778 2.215 1.884 0 .468-.437 1.016-1.224 1.507-2.366 1.49-4.714 3.466-5.69 6.111-1.218 3.303.157 5.493 2.121 6.752 0 0-.616.566-1.51.637a5.53 5.53 0 01-.525.025c-1.882 0-2.856-.882-2.856-.882s.162 1.22 1.136 2.352c.91 1.047 2.096 1.663 3.908 1.688 0 0 .058.84-.744 1.566-.515.459-1.699.61-1.699.61s2.221.448 2.464 3.724c.133 1.774.582 2.39.582 2.39h-.037z" fill="#2C3F4D"/><path d="M4.791 17.503c.249 0 .492-.037.721-.116.648-.214 1.059-.729 1.492-1.262.444-.547.943-1.164 1.809-1.624l.89-.478-.827-.58c-.069-.044-.69-.463-1.528-.463-.69 0-1.33.282-1.857.821-1.284 1.31-2.435 1.416-2.477 1.418l-.897.052.369.823c.37.815 1.34 1.409 2.305 1.409zm1.142-3.266c.478-.492.98-.638 1.415-.638.667 0 1.172.354 1.172.354-1.805.962-2.175 2.501-3.206 2.848-.17.06-.347.087-.523.087-.757 0-1.49-.49-1.74-1.05 0-.002 1.387-.087 2.882-1.601zM8.838 24.677c-.097-2.328.501-4.216 1.438-5.771-.522 1.62-.451 3.605 1.326 5.457 0 0-3.535-4.233 1.408-8.572 1.978-1.652 4.14-2.67 5.253-3.393-4.023 1.312-5.988-.133-5.988-.133 1.284 1.113 2.948 1.094 3.981.932-.28.137-.572.28-.883.447-3.396 1.844-6.445 4.875-6.967 9.071v-.033c-.789 4.122-2.543 5.18-2.543 5.18 1.396-.689 2.275-2.515 2.489-3.174.233 3.622 2.001 6.137 4.07 8.557 1.073 1.254 1.451 2.473 1.451 2.473s-.21-1.381-1.14-2.506c-1.927-2.314-3.76-5.2-3.895-8.536zM24.611 16.187v.832c.288-.349.843-.277.843-.277v1.2s-.02.59-.23.846h1.202c-.207-.255-.228-.846-.228-.846v-1.2s.555-.072.84.277v-.832h-2.427zM24.095 11.25c.384.305.606.355.613.36l.15.07v-.784l-1.41-.594c0 .002.013.455.647.948zM27.452 11.25c.638-.493.65-.948.65-.948l-1.412.594v.784l.149-.07c.01-.005.23-.055.613-.36z" fill="#2C3F4D"/><path d="M29.994 8.057c0-1.189-2.003-2.258-4.214-2.258h-.014c-2.211 0-4.214 1.069-4.214 2.258l.044.293.883 5.065-.887.514-2.294 1.34h.008s-.517.263-.756.427c-.873.607-1.058 1.491-.551 1.857.125-.72.696-1.475 1.764-1.475.769 0 1.355.396 1.83.992.12.15.236.31.345.483.132.218.265.409.399.594h-5.91c.434.873.847 1.798.847 2.801V34.02c0 3.164 2.435 4.674 5.068 4.674 2.036 0 2.31-.092 3.434 1.025 1.118-1.12 1.392-1.025 3.43-1.025 2.635 0 5.066-1.51 5.066-4.674V20.95c0-1.004.413-1.93.848-2.802h-5.91a9.6 9.6 0 00.396-.593c.11-.174.224-.334.344-.484.478-.597 1.062-.992 1.831-.992 1.068 0 1.637.753 1.764 1.476.507-.367.324-1.25-.555-1.858-.235-.164-.752-.428-.752-.428h.008l-2.294-1.339-.883-.514.883-5.065.042-.293zm-7.573.59l3.104 1.051v4.873l-2.284-1.204-.82-4.72zm.642 10.35c.51.506 1.009.82 1.483.994-.062.244-.143.75.087 1.252.187.405.526.717 1.014.925a1.92 1.92 0 001.247 1.588c-.384.387-.758.75-.91.9l-3.557-.057a.632.632 0 01-.28-.26c-.007-.017-.019-.027-.024-.046l.58.094a.251.251 0 00.036.002.23.23 0 00.23-.192.232.232 0 00-.193-.266l-.713-.112.792-2.734-.75-1.578-1.203 1.272-.073 2.843-.808-.127c-.125-.025-.245.068-.266.193a.235.235 0 00.193.266l.34.052c-.122.07-.201.123-.211.13l-.07.05-.019.084c-.196.798.249 1.555.73 1.894l-.018.1a.452.452 0 00.08.343.446.446 0 00.373.19c.208 0 .39-.144.441-.354.18.021.343.025.455.025h.095l4.667.842.08-.052c.371-.26 1.788-1.293 2.253-1.634.127.11.27.21.443.293-.15.505-.16 1.281.436 1.894H18.128v-6.86c0-.665-.195-1.334-.424-1.95h5.36v-.005zm5.768 6.277c-.472.347-1.686 1.233-2.126 1.541l-4.241-.76.029-.115c.056-.22.112-.52.115-.872l3.565.057.067-.069c.055-.054 1.184-1.145 1.76-1.773.137.172.309.336.533.48-.077.416-.045 1.01.298 1.51zm-7.1-.734c.1.21.281.35.407.43a4.918 4.918 0 01-.075.772 1.57 1.57 0 01-.045.171l-.027.087a2.73 2.73 0 01-.856-.133c-.333-.123-.83-.734-.715-1.406.145-.089.478-.276.79-.276.242-.002.405.112.521.355zm-.441-.846l.07-2.73.614-.65.386.806-.76 2.62-.31-.046zm7.503 14.153c-.231 0-.445.004-.638.012l.505-1.57c.08-.218-.32-.497-.484-.742.249.156.893.497 1.203.634-.033.05-.586 1.666-.586 1.666zm1.585-1.784l-.33 1.719c-.21.029-.434.044-.663.054l.347-1.653c.104-.492-1.216-.644-1.868-1.61-.318.36-.918.465-1.52.465a7.77 7.77 0 01-1.432-.154 1.577 1.577 0 00-.245-.023c-.193 0-.368.06-.49.264l-.096.162-1.798-.424-.448.74c-.063.12-.067.221.035.333l.121.133c-.082.262-.456.657-.456.657l-.268-.333c-.213-.237-.178-.669.044-1.07l.713-1.204 1.523.22-.237-.54c-.318-.712.166-1.62.218-2.142-.017.158-.162.193-.332.193-.154 0-.326-.03-.44-.03-.044 0-.082.005-.103.02l-.413.25-.326-.287c-.038-.056-.052-.185.045-.281l.753-.844-.89-1.038 1.247.626.38-.46c.104.101.06.37.06.37.39.009 1.48.612 1.538 2.018.004.043.004.091.004.137 0 0 .01.018.029.046.077.106.289.378.559.403l1.724.17h.007c.19 0 .565-.222 1.047-.222.262 0 .555.068.868.264 0 0 .156-.123.41-.137.02-.002.04-.002.06-.002.773 0 1.093.698 1.508 1.278.312.441.728 1.096.728 1.096-.154.183-.297.283-.536.283-.065 0-.14-.005-.221-.02-.83-.153-.949-1.856-1.421-1.991a.26.26 0 00-.075-.01c-.153 0-.22.135-.22.135.216.58.09.815.322 1.262.173.331.482.605.61.734a9 9 0 01-.072.443zm-9.256-1.626l.079.199c-.052.173-.65.42-.65.42l-.129-.282a.937.937 0 01.309-1.117l.967-.59 1.026.218a.907.907 0 00.175.568l-1.075-.206-.644.445c-.108.075-.116.216-.058.345zm9.418 3.25l.295-1.537.048-.285a1.613 1.613 0 00.573.112c.45 0 .713-.237.888-.44l.228-.264-.185-.289a27.29 27.29 0 00-.743-1.12 5.757 5.757 0 01-.18-.267c-.36-.536-.809-1.208-1.709-1.208l-.08.002c-.15.01-.277.038-.379.077a2.042 2.042 0 00-.877-.2c-.372 0-.686.102-.895.173-.06.017-.113.037-.156.044l-1.683-.165c-.02-.004-.09-.044-.173-.145v-.008l.364-.146c-.102-1.212-1.267-1.957-1.916-2.21a.686.686 0 00-.19-.34l-.361-.344-.319.382-.156.194-2.356-.967 1.533 1.923-.605.915c-.222.235.023.47.023.47l.624.43.648-.241c.023 0 .043.006.064.008-.031.098-.072.483-.099.591l-1.123-.221-1.182.666a1.396 1.396 0 00-.465 1.688l.131.287.187.405.413-.172a.037.037 0 00.015-.007c-.148.474-.088.924.177 1.221l.251.316.334.422.366-.393c.108-.108.457-.499.565-.834l.079-.257-.18-.196-.028-.035.2-.331 1.467.345.33.075.175-.29.097-.157c.017-.033.023-.039.09-.039.053 0 .105.006.16.018a8.313 8.313 0 001.518.156c.44 0 .701-.018 1.016-.122 0 0 .788.894.815.929l-.482 1.487-.021.091c-.914.073-1.36.274-1.897.811-.78-.775-1.334-.855-3.434-.855-2.512 0-4.214-1.472-4.214-3.823V28.27h15.292l.004 5.747c.002 1.907-1.118 3.237-2.882 3.67zm3.306-18.69c-.233.616-.428 1.285-.428 1.95l.002 4.288c-.897-.15-1.003-1.115-1.007-1.158l-.017-.196-.193-.018a1.361 1.361 0 01-.865-.414c-.44-.44-.442-1.152-.44-1.158-.005.037-.484.705.072 1.436.233.308.57.497 1.008.572.102.535.501 1.29 1.442 1.406v2.1h-2.645c-1.22-.678-.704-1.872-.679-1.922l.104-.228-.233-.088c-1.32-.49-.958-1.808-.939-1.864l.054-.192-.18-.085c-1.09-.505-.942-1.867-.928-1.923-.336.272-.457.827-.226 1.37-.125.143-.293.316-.476.505a1.48 1.48 0 01-1.164-1.374l-.003-.16-.148-.058c-.441-.163-.744-.408-.893-.738-.167-.364-.108-.745-.061-.928a3.732 3.732 0 00.771.081H25.792c.13 0 .26-.008.387-.021.703-.07 1.492-.372 2.313-1.185h5.354v.002zm-4.122-4.336l1.045.607h.016l.262.153a3.08 3.08 0 00-1.42.845l-.04.04a4.68 4.68 0 00-.254.296l-.048.061a4.896 4.896 0 00-.268.378c-.087.129-.17.268-.253.41-.744 1.282-1.932 2.046-2.988 2.048-1.055-.002-2.242-.766-2.986-2.048a8.301 8.301 0 00-.25-.404l-.047-.072a7.982 7.982 0 00-.278-.38 7.321 7.321 0 00-.247-.286c-.017-.014-.029-.031-.046-.046a3.063 3.063 0 00-1.42-.842l.265-.153h.012l1.045-.607 1.073-.614 2.87 1.56.005-.005.008.005 2.868-1.56 1.076.614zM28.31 13.37l-2.286 1.204V9.698l3.102-1.052-.816 4.723zm-2.535-4.206l-3.4-1.343c.288-.684 1.622-1.266 3.4-1.268 1.78.002 3.113.584 3.4 1.268l-3.4 1.343zM67.888 29.554v-7.715h4.528v-2.807H60.063v2.807h4.528v7.715h3.297zm9.034-4.4v-6.122h-3.187v10.522h2.814l5.494-6.123v6.123h3.188V19.032h-2.814l-5.495 6.123zm19.031.487v3.913h3.188V19.032h-3.188v3.846h-5.121v-3.846h-3.188v10.522h3.188V25.64h5.121zm12.063 3.913c.724 0 1.384-.066 2-.243 1.649-.465 2.726-1.813 2.726-3.648 0-1.746-.923-2.962-2.395-3.515-.706-.265-1.54-.287-2.331-.287h-3.276v-2.83h-3.186v10.523h6.462zm-.55-5.217c.44 0 .858 0 1.231.133.528.176.836.619.836 1.15 0 .552-.308 1.016-.814 1.237-.351.155-.703.155-1.253.155h-2.726v-2.675h2.726zm10.99 1.238l3.803 3.979h4.241l-5.297-5.482 5.1-5.04h-4l-3.847 3.956h-.879v-3.956h-3.186v10.522h3.186v-3.98h.879zm14.602-6.83c-4.286 0-6.857 2.43-6.857 5.57 0 3.139 2.571 5.57 6.857 5.57 4.265 0 6.837-2.431 6.837-5.57 0-3.14-2.572-5.57-6.837-5.57zm0 8.576c-2.132 0-3.493-1.282-3.493-3.006 0-1.724 1.361-2.984 3.493-2.984 2.11 0 3.496 1.26 3.496 2.984s-1.386 3.006-3.496 3.006zm17.451-8.886h-3.187v1.06c-4 .09-6.397 1.791-6.397 4.798 0 3.006 2.397 4.576 6.397 4.664v1.061h3.187v-1.061c4.022-.088 6.418-1.658 6.418-4.664 0-3.007-2.396-4.709-6.418-4.797v-1.061zm-3.187 8.267c-2.198-.088-3.166-.995-3.166-2.41 0-1.414.968-2.43 3.166-2.52v4.93zm3.187-4.93c2.221.09 3.166 1.106 3.166 2.52 0 1.415-.945 2.322-3.166 2.41v-4.93zm17.021-3.337h-3.187v1.06c-4 .09-6.395 1.791-6.395 4.798 0 3.006 2.395 4.576 6.395 4.664v1.061h3.187v-1.061c4.024-.088 6.419-1.658 6.419-4.664 0-3.007-2.395-4.709-6.419-4.797v-1.061zm-3.187 8.267c-2.198-.088-3.164-.995-3.164-2.41 0-1.414.966-2.43 3.164-2.52v4.93zm3.187-4.93c2.22.09 3.166 1.106 3.166 2.52 0 1.415-.946 2.322-3.166 2.41v-4.93z" fill="#2C3F4D"/></g><defs><clipPath id="gclip0_38_24"><path fill="#fff" d="M0 0h174v46H0z"/></clipPath></defs></svg><svg fill="none" viewBox="0 0 100 100" id="tree" xmlns="http://www.w3.org/2000/svg"><path d="M48.379 7.91l-1.504 3.027H40.723l2.304 2.305 2.305 2.324-1.191 3.008c-.664 1.66-1.387 3.438-1.582 3.945-.215.528-.313.899-.235.86a1791.8 1791.8 0 003.926-2.363L50 18.77l3.77 2.246c2.05 1.25 3.808 2.304 3.906 2.363.078.039-.02-.332-.235-.86-.195-.507-.918-2.285-1.582-3.945l-1.191-3.008 2.305-2.324 2.304-2.305H53.125L51.621 7.91C50.781 6.25 50.06 4.883 50 4.883c-.059 0-.781 1.367-1.621 3.027z" fill="#DA0F0F"/><path d="M49.414 22.11c-2.793 5.078-7.832 9.921-13.144 12.675l-2.344 1.211.937.371c6.016 2.364 14.512 3.223 21.524 2.207 3.242-.488 9.648-2.207 9.629-2.597 0-.079-.606-.41-1.328-.723-5.43-2.422-11.114-7.715-14.102-13.145-.254-.449-.527-.82-.586-.82-.059 0-.332.371-.586.82zM38.77 43.184c-3.653 3.691-8.594 7.46-12.247 9.355-.742.371-1.328.742-1.328.82 0 .176 2.89 1.895 4.883 2.891 3.887 1.953 8.887 3.516 13.477 4.238 3.125.469 9.765.469 12.89 0 4.649-.742 9.551-2.265 13.496-4.238 2.032-1.016 4.864-2.715 4.864-2.91 0-.078-.332-.293-.723-.488-2.031-.957-6.367-3.868-8.75-5.84-.644-.547-2.266-2.07-3.613-3.38-2.403-2.362-2.461-2.401-3.125-2.265l-.684.156-.058 2.07-.059 2.051.605.254c1.329.547 2.54 2.52 2.54 4.141 0 1.875-1.583 3.984-3.34 4.453-1.016.274-2.637.156-3.438-.254-1.445-.761-2.597-2.617-2.597-4.199 0-1.621 1.21-3.594 2.539-4.14l.586-.235V42.09h-4.532c-3.379-.02-5.117-.098-6.777-.371-1.211-.176-2.305-.39-2.441-.43-.118-.039-1.094.8-2.169 1.895z" fill="#fff"/><path d="M29.883 61.66c-3.027 2.637-7.305 5.664-11.113 7.871-1.407.801-1.739 1.075-1.563 1.29.117.136 1.016.859 1.992 1.6 18.32 13.81 43.203 13.829 61.543.06.996-.743 1.914-1.485 2.031-1.641.176-.215-.273-.567-2.46-1.856-3.301-1.972-6.973-4.59-9.707-6.894l-2.07-1.758-1.505.586c-3.808 1.465-8.633 2.559-13.027 2.969-2.422.215-7.461.136-9.414-.137l-.84-.137v3.926l.586.234c1.328.547 2.539 2.52 2.539 4.141 0 1.875-1.582 3.984-3.34 4.453-1.015.274-2.636.156-3.437-.254-1.446-.761-2.598-2.617-2.598-4.199 0-1.621 1.211-3.594 2.54-4.14l.585-.235v-4.375l-2.188-.547a63.569 63.569 0 01-4.59-1.406c-1.308-.469-2.402-.86-2.44-.84-.04 0-.723.586-1.524 1.29z" fill="#fff"/><path d="M44.824 86.426c-.078.547-.879 8.418-.879 8.75 0 .078 2.735.136 6.055.136 3.34 0 6.055-.058 6.055-.136 0-.332-.801-8.203-.88-8.75l-.097-.586H44.922l-.098.586z" fill="#fff"/></svg><svg fill="none" viewBox="0 0 209 28" id="visa" xmlns="http://www.w3.org/2000/svg"><g clip-path="url(#iclip0_38_112)"><path d="M29.033 24.683h-5.427L27 3.386h5.428l-3.395 21.297zM48.708 3.907C47.638 3.476 45.94 3 43.84 3c-5.36 0-9.134 2.9-9.157 7.046-.044 3.058 2.702 4.757 4.757 5.777 2.1 1.042 2.813 1.723 2.813 2.652-.021 1.426-1.696 2.084-3.26 2.084-2.166 0-3.327-.34-5.092-1.133l-.714-.34-.76 4.78c1.273.589 3.619 1.111 6.053 1.134 5.695 0 9.403-2.855 9.447-7.273.022-2.425-1.429-4.282-4.556-5.8-1.898-.974-3.06-1.631-3.06-2.629.022-.906.983-1.834 3.125-1.834 1.765-.046 3.061.385 4.043.815l.491.226.738-4.598zM55.922 17.138c.447-1.224 2.167-5.959 2.167-5.959-.023.046.446-1.246.714-2.039l.38 1.835s1.027 5.098 1.25 6.163h-4.511zm6.7-13.752h-4.199c-1.294 0-2.278.385-2.836 1.767l-8.062 19.53h5.695l1.139-3.195h6.968c.156.747.648 3.194.648 3.194H67L62.621 3.386zM19.073 3.386l-5.316 14.522-.58-2.945c-.983-3.398-4.065-7.09-7.504-8.927L10.54 24.66h5.74l8.53-21.274h-5.738z" fill="#00579F"/><path d="M8.822 3.386H.089L0 3.816c6.812 1.768 11.323 6.028 13.177 11.148l-1.899-9.788c-.312-1.36-1.273-1.745-2.456-1.79z" fill="#FAA61A"/></g><g clip-path="url(#iclip1_38_112)"><path d="M89.344 27.939V26.08c0-.71-.42-1.176-1.142-1.176-.361 0-.754.123-1.023.527-.21-.34-.512-.527-.963-.527a.96.96 0 00-.841.433v-.372h-.63v2.974h.63v-1.642c0-.527.27-.776.69-.776.42 0 .63.278.63.776v1.642h.63v-1.642c0-.527.302-.776.691-.776.42 0 .63.278.63.776v1.642h.698zm9.352-2.974h-1.023v-.898h-.63v.898h-.571v.589h.57v1.364c0 .681.27 1.082.992 1.082.27 0 .571-.094.781-.216l-.182-.56a.986.986 0 01-.543.155c-.301 0-.42-.187-.42-.494v-1.331h1.022v-.588h.004zm5.352-.064c-.36 0-.602.187-.753.433v-.372h-.63v2.973h.63v-1.674c0-.494.21-.776.603-.776.119 0 .269.032.392.061l.182-.62c-.126-.025-.305-.025-.424-.025zm-8.088.31c-.3-.217-.721-.31-1.173-.31-.722 0-1.202.371-1.202.96 0 .494.361.775.992.865l.301.033c.33.061.511.155.511.31 0 .217-.241.372-.662.372a1.63 1.63 0 01-.963-.31l-.301.494c.33.249.781.371 1.233.371.84 0 1.324-.404 1.324-.96 0-.526-.392-.804-.991-.898l-.302-.032c-.27-.033-.48-.094-.48-.278 0-.217.21-.34.543-.34.361 0 .722.156.904.25l.266-.527zm16.775-.31c-.361 0-.602.187-.753.433v-.372h-.63v2.973h.63v-1.674c0-.494.21-.776.603-.776.119 0 .269.032.392.061l.182-.613c-.122-.032-.301-.032-.424-.032zm-8.056 1.551c0 .898.602 1.548 1.534 1.548.42 0 .722-.094 1.023-.34l-.301-.526c-.242.188-.48.278-.753.278-.512 0-.873-.372-.873-.96 0-.56.361-.93.873-.96.269 0 .511.094.753.278l.301-.527c-.301-.249-.603-.339-1.023-.339-.932-.003-1.534.65-1.534 1.548zm5.832 0v-1.487h-.631v.372c-.21-.278-.511-.433-.903-.433-.813 0-1.443.65-1.443 1.548s.63 1.548 1.443 1.548c.42 0 .721-.155.903-.433v.372h.631v-1.487zm-2.315 0c0-.527.329-.96.872-.96.511 0 .872.404.872.96 0 .527-.361.96-.872.96-.54-.033-.872-.437-.872-.96zm-7.545-1.552c-.841 0-1.444.621-1.444 1.549 0 .93.603 1.547 1.475 1.547a1.8 1.8 0 001.174-.404l-.302-.465c-.241.187-.543.31-.84.31-.393 0-.781-.188-.873-.71h2.134v-.25c.028-.956-.515-1.576-1.324-1.576zm0 .56c.392 0 .662.249.721.71H99.87c.059-.4.329-.71.781-.71zm15.664.992V23.79h-.63v1.548c-.211-.278-.512-.433-.904-.433-.813 0-1.443.65-1.443 1.548s.63 1.548 1.443 1.548c.42 0 .721-.155.904-.433v.372h.63v-1.487zm-2.315 0c0-.527.329-.96.872-.96.511 0 .872.404.872.96 0 .527-.361.96-.872.96-.543-.033-.872-.437-.872-.96zm-21.108 0v-1.487h-.63v.372c-.21-.278-.512-.433-.904-.433-.813 0-1.444.65-1.444 1.548S90.546 28 91.359 28c.42 0 .721-.155.903-.433v.372h.63v-1.487zm-2.343 0c0-.527.329-.96.872-.96.511 0 .872.404.872.96 0 .527-.36.96-.872.96-.543-.033-.873-.437-.873-.96z" fill="#000"/><path d="M105.222 2.385H95.75v17.529h9.472V2.385z" fill="#FF5A00"/><path d="M96.38 11.15c0-3.562 1.626-6.723 4.12-8.765C98.665.898 96.35 0 93.824 0 87.84 0 83 4.987 83 11.15c0 6.162 4.84 11.149 10.824 11.149 2.525 0 4.84-.898 6.676-2.385-2.498-2.014-4.12-5.203-4.12-8.765z" fill="#EB001B"/><path d="M118 11.15c0 6.162-4.841 11.149-10.824 11.149-2.525 0-4.841-.898-6.676-2.385 2.526-2.046 4.119-5.203 4.119-8.765 0-3.56-1.625-6.722-4.119-8.764A10.551 10.551 0 01107.173 0C113.159 0 118 5.02 118 11.15z" fill="#F79E1B"/></g><path fill-rule="evenodd" clip-rule="evenodd" d="M145.916 5.386c.589-.003 2.342-.157 3.084 2.292.5 1.65 1.296 4.353 2.389 8.108h.446a1622.83 1622.83 0 012.415-8.108c.75-2.475 2.625-2.292 3.375-2.292h5.786v17.6h-5.897V12.614h-.396l-3.287 10.372h-4.438l-3.287-10.38h-.396v10.38h-5.898v-17.6h6.104zm25.964 0v10.38h.471l3.999-8.535a3.164 3.164 0 012.431-1.845h5.707v17.6h-6.021v-10.38h-.47l-3.921 8.536c-.776 1.69-2.509 1.844-2.509 1.844h-5.707v-17.6h6.02zm33.419 8.364c-.84 2.327-3.477 3.994-6.397 3.994h-6.315v5.242h-5.725V13.75h18.437z" fill="#0F754E"/><path fill-rule="evenodd" clip-rule="evenodd" d="M199.178 5.386h-12.616c.3 3.919 3.751 7.273 7.324 7.273h11.811c.681-3.256-1.665-7.273-6.519-7.273z" fill="url(#ipaint0_linear_38_112)"/><defs><clipPath id="iclip0_38_112"><path fill="#fff" transform="translate(0 3)" d="M0 0h67v22H0z"/></clipPath><clipPath id="iclip1_38_112"><path fill="#fff" transform="translate(83)" d="M0 0h35v28H0z"/></clipPath><linearGradient id="ipaint0_linear_38_112" x1="205.813" y1="9.961" x2="186.562" y2="9.961" gradientUnits="userSpaceOnUse"><stop stop-color="#1F5CD7"/><stop offset="1" stop-color="#02AEFF"/></linearGradient></defs></svg><svg fill="none" viewBox="0 0 40 40" id="whats-app" xmlns="http://www.w3.org/2000/svg"><path d="M27.871 23.434c-.426-.22-2.547-1.258-2.941-1.399-.395-.148-.684-.219-.97.219-.288.433-1.108 1.398-1.366 1.691-.25.29-.504.325-.93.11-2.531-1.266-4.191-2.258-5.86-5.121-.44-.762.442-.707 1.266-2.352.14-.289.07-.535-.039-.754-.11-.219-.968-2.336-1.328-3.2-.348-.839-.707-.722-.969-.737-.25-.016-.535-.016-.824-.016-.289 0-.754.11-1.148.535-.395.434-1.508 1.477-1.508 3.594s1.543 4.168 1.754 4.457c.219.289 3.035 4.633 7.36 6.504 2.734 1.18 3.804 1.281 5.171 1.078.832-.125 2.547-1.04 2.902-2.05.356-1.009.356-1.872.25-2.052-.105-.191-.394-.3-.82-.507z" fill="#fff"/><path d="M36.14 13.219A17.505 17.505 0 0032.38 7.62 17.357 17.357 0 0026.78 3.86 17.416 17.416 0 0020 2.5h-.078A17.46 17.46 0 007.559 7.672a17.342 17.342 0 00-3.72 5.578A17.506 17.506 0 002.5 20.082c.012 2.711.66 5.402 1.875 7.809v5.937c0 .992.805 1.797 1.797 1.797h5.941a17.554 17.554 0 007.809 1.875h.082c2.34 0 4.61-.453 6.746-1.34a17.363 17.363 0 005.578-3.719A17.458 17.458 0 0037.5 20.078a17.433 17.433 0 00-1.36-6.86zm-5.902 17.11A14.454 14.454 0 0120 34.53h-.066a14.582 14.582 0 01-6.762-1.699l-.328-.176h-5.5v-5.5l-.176-.328a14.582 14.582 0 01-1.7-6.762c-.015-3.894 1.473-7.55 4.204-10.304 2.726-2.754 6.37-4.278 10.265-4.293h.067c1.953 0 3.848.379 5.633 1.129a14.437 14.437 0 014.648 3.125 14.457 14.457 0 013.125 4.648 14.47 14.47 0 011.129 5.695c-.023 3.891-1.55 7.536-4.3 10.262z" fill="#fff"/></svg><svg fill="none" viewBox="0 0 40 40" id="youtube" xmlns="http://www.w3.org/2000/svg"><path d="M37.5 19.89c0-.085 0-.183-.004-.296-.004-.317-.012-.672-.02-1.051a58.907 58.907 0 00-.171-3.2c-.117-1.41-.29-2.585-.524-3.468a5.45 5.45 0 00-3.84-3.848c-1.105-.297-3.27-.48-6.316-.593-1.45-.055-3-.09-4.55-.11-.544-.008-1.048-.011-1.5-.015h-1.15c-.452.003-.956.007-1.5.015-1.55.02-3.1.055-4.55.11-3.047.117-5.215.3-6.316.593a5.443 5.443 0 00-3.84 3.848c-.239.883-.406 2.059-.524 3.469a58.827 58.827 0 00-.172 3.199c-.011.379-.015.734-.02 1.05 0 .114-.003.212-.003.298v.218c0 .086 0 .184.004.297.004.317.012.672.02 1.051.03 1.09.085 2.176.171 3.2.118 1.41.29 2.585.524 3.468a5.443 5.443 0 003.84 3.848c1.101.297 3.27.48 6.316.593 1.45.055 3 .09 4.55.11.544.008 1.048.011 1.5.015h1.15c.452-.004.956-.007 1.5-.015 1.55-.02 3.1-.055 4.55-.11 3.047-.117 5.215-.3 6.316-.593a5.436 5.436 0 003.84-3.848c.239-.883.407-2.059.524-3.469.086-1.023.14-2.11.172-3.199.011-.379.015-.734.02-1.05 0-.114.003-.212.003-.298v-.218zm-2.813.204c0 .082 0 .172-.003.277-.004.305-.012.64-.02 1.004a52.896 52.896 0 01-.164 3.043c-.105 1.258-.254 2.289-.438 2.98a2.628 2.628 0 01-1.851 1.856c-.82.219-2.887.394-5.695.5a177.713 177.713 0 01-5.957.121H19.44l-1.476-.012a178.18 178.18 0 01-4.48-.11c-2.81-.108-4.88-.28-5.696-.5a2.635 2.635 0 01-1.851-1.855c-.184-.691-.333-1.722-.438-2.98a56.584 56.584 0 01-.164-3.043c-.012-.363-.016-.703-.02-1.004 0-.105-.003-.2-.003-.277v-.188c0-.082 0-.172.003-.277.004-.305.012-.64.02-1.004.027-1.04.082-2.078.164-3.043.105-1.258.254-2.289.438-2.98a2.628 2.628 0 011.851-1.856c.82-.219 2.887-.394 5.695-.5a177.254 177.254 0 015.957-.121h1.118l1.476.012c1.527.02 3.055.054 4.48.11 2.81.108 4.88.28 5.696.5.898.241 1.61.952 1.852 1.855.183.691.331 1.722.437 2.98.082.965.133 2.004.164 3.043.012.363.016.703.02 1.004 0 .105.004.2.004.277v.188zm-18.164 5.14l9.063-5.273-9.063-5.195v10.468z" fill="#fff"/></svg></svg>